<svg display="none" xmlns="http://www.w3.org/2000/svg">
    <symbol id="first-picture">
        <svg width="375" height="288" xmlns="http://www.w3.org/2000/svg">
            <path fill-rule="evenodd" clip-rule="evenodd"
                  d="M94.5 173c2-1.4 5.9-6 8-7 4.5-2.5 24.7-7.1 25.4-7.4 1-.4 7.5-1.9 11.3-2.8 9-2.2 40.9-16.3 49.3-20 1 2.9 10 15.3 8.4 16.6a127.7 127.7 0 01-34.5 18.5c-5.7 1.8-9.6 3.8-15.3 5.8-5.6 1.8 1.1 7.7 4 9 3.2 1.3 8.2 2 11.5 3.1a70.4 70.4 0 00-11.6 30.6c-.3 2.6-2.3 5-5.5 4.2-1.6-.4-17-2.4-19.5-3-16.7-3.8-46.6-23.6-38.9-44 1.8.9 5.8-2.6 7.4-3.7z"
                  fill="#FF7A00"/>
            <path fill-rule="evenodd" clip-rule="evenodd"
                  d="M103.9 65c1.2 0 4.5-2.5 2.8-3.7-1.7-1.3-3 3-2.8 3.8zm-65 9.6c.4 0 .2-1.8-.3-2-1.6-.8-1.7 1.9-1.8 2.6 0 1-.1 3.5 1.8 2.8 1.1-.4.5-2.7.3-3.4zm95.6 8.3c0 1.6 3.2 4.6 4.4 2.8 1-1.6-4.3-6-4.4-2.8zM21 47.2c.9 2.3 5.5-.9 5.7-2.6.3-3.6-5.8.2-5.7 2.6zm38.4 10.2c2.1-.2 5-3 7-4 1.4-.6 5.2-1.5 5.7-3 .3-1.4-6.1 1.5-6.7 1.8-2.5 1.2-4.8 2.5-6 5.2zm161-18.8a9.5 9.5 0 016-2c1.2 0 3.4.6 3.5-1.2.2-3.1-9.5.6-11 1.2l1.6 2zM113.8 158c-1.3-2-3.5-3.3-5.2-5 .6 2.9-.8 5.4-1.8 8l7-3zm217.9 44.2l2.2-6.9c.9-2.5 1.3-2.7-.8-4.5l-5.4 10.1c1.2.6 2.6 1 4 1.3zm-186-166.7c-2.4-2.6-13.5-2.8-12.2 3 .5 2.1 3.3 0 5-.5 1.7-.5 6.5-.6 7.2-2.5zm-.4 37.8c-.3-.7-.9-3.1-1.7-3.3-.9-.2-4.2 2.4-4.8 2.8l-9 6.1c1 0 2.1-.4 3.3-.4 1.3 0 2.3.5 3.6.2 2.9-.7 6.2-3.8 8.6-5.4zm3-60.9c.3-1.2 14.3 2.5 16 3.1.9.4 5.6 2.8 4.6-.8-.6-2.1-6-3.7-7.8-4.3a38.4 38.4 0 00-13.8-2.2c-1 0-7.9.4-5 3.2 1 1 4.6.6 6 1zm3.1 167.7a82 82 0 008 3.2c1.2.5 3 1.6 4.4 1.3 1-.2 1.4-1.9 2-3 2-4 4.6-7.3 7.7-10.6-1.4-1-8.8 3.6-10.6 4.2a79 79 0 00-5.2 2.2c-1.7.8-5 1.5-6.3 2.7zm46-34.5c3.8-1.7 7.4-4.7 10.5-7.4 3.5-3.1 6.7-6.4 9.3-10.4-1.5 0-5 5.1-5-.4 0-2.7 3.8-5.5 5-8-3-1.7-5.7 8.2-9.1 5.8-3.3-2.3 1.9-10.3 2.9-12.8-2-1.3-12.9 13-14.5 14.8-1 1.1-3.3 2.6-3.9 4-.3.7-.4 3.3-.2 4 .3 1.5 2 3.3 2.8 4.8 1 1.8 1.8 3.6 2.2 5.6zM353.8 197c-3.3-4.6.1-6.6 2.8-10.4 2.1-3 4-6.4 5.4-9.8 3.4-8.5 6.4-16.5 8-25.5-2.2 1-3.6 5-4.8 7.1-1.5 2.8-2.9 5.8-4.6 8.5-3.2 5-6.4 10.5-10.4 15-1.9 2-3.5 4.2-5.6 6-1 .8-2.8 1.5-3.6 2.5-.6 1 .1 1.6-.1 2.8-.3 1.2-1.5 2.4-2 3.6l-2.1 4.5c-.8 1.6-1 2.4-1.3 4-.2 1.7.5 1.9-1 3.5l8.2 3.5 2.8 1.3.6-1.1a242.3 242.3 0 017.7-15.4zM90.1 177.7c-7.8 20.3 19.5 37.4 36.3 41.2l6.9 1.8c2.5.6 4.7.5 7.2.7 2 .2 3 1.8 4.9 2.2 3.1.7 3-1.6 3.2-4.2 1-10.7 6.4-21 12.2-30l-7.9-3c-2.2-.8-5.6-3.3-8-3.5-1.8 0-4.6 1.4-6.3 2.1-2.9 1.1-5.8 2-8.8 2.8-5.2 1.3-11 3.1-16.5 3.3-1.6 0-6 .7-7-.2-2.2-1.9.8-3.4 2.6-4 10.7-4 22.1-5.6 33-9.6 5.5-2.1 11-4.4 16.5-6.4 4.8-1.8 9.9-3.3 14.5-5.5a90.2 90.2 0 0017.6-10.6c1-.8 3.3-2 4-3.3.7-1 .6 0 .5-1.3-.1-.9-1.3-2.1-1.7-3a89.3 89.3 0 01-4.7-10.1c-8.5 3.6-16.5 8.5-24.9 12.4-8.4 3.9-17.9 6.6-26.9 8.8-3.8 1-8.2 1.2-11.7 3-1.5.9-3 1.8-4.6 2.2-.4 1-.9 1-1.4.5-.2-.3-.6-.4-1-.4-1 .2-2 .7-3 1-4.6 1.8-9 4-13.4 6.3l-6.2 3.4c-1 .6-2 1.3-3 2.2-1 1.1-.7 2-2.4 1.2zM264.6 57.2c2 0 3.7-1 5.8-1 3.2 0 5.7 2.6 7.6 5 3.7 4.7 2.7 10.4.9 15.7-.9 2.5-2.1 5-3.6 7.2-1.4 2-3.8 3.8-4.7 6-1.6 3.5 1.5 2 3.5 1.3 2.4-1 4.6-2.2 6.7-3.8 9-7.3 16-17.3 18.3-28.8 1.2-5.6 1-12.2-2.9-16.8-3.6-4.2-9.8-5.6-15-4.8-5.8.9-11 3.3-15.7 6.4-1.4.9-2.6 1.9-3.9 2.9-1.7 1.3-2.7 1.4-2.2 3.4.3 1.6 1.1 3.2 1.7 4.7 1 2.8.6 3.5 3.5 2.6zm6.2 47.9l-.4.7c2.8 0 5.3-2.3 7.6-3.5a50 50 0 008.4-5.7A66 66 0 00299.3 84C307 73 314.2 59.2 312 45.4c-2.2-14.8-15.3-20.6-29.2-18.6a57 57 0 00-17.5 6.5c-2.9 1.4-5.3 3.3-7.9 5-1.3 1-2.5 1.1-2.6 2.8 0 1.2 2 4 2.6 5 7-7 14.7-13 25.3-13.4 12.7-.4 20.2 11.5 20.1 23 0 11.2-4.9 22-12.6 30a55.7 55.7 0 01-11.3 9.4c-2.1 1.3-3.7 2.5-6.1 3.4-1.7.6-1.6.3-2 1.9-.4 1.3 0 3.3 0 4.7zM202 257.6c-.2 2-.6 4-1 6-.2.7-1.2 3-1 3.7.3 1.3-.1.5 1 1.2 1.3.7 2.7.6 4 .9.8.1 3.8 1.5 4.3 1.3.9-.4.9-1.8 1.8-2.3 1.4-.7 3.3-.1 4.5.5 3.4 1.5 5.6 4.7 8.9 6.4a52.3 52.3 0 0018.8 5.6c3.4.3 7 1 10.4.2 2.7-.6 6.2-.6 7.6-3.4-13-3.6-32.7-8-37.9-22.7-2.7 2.5-7.4 1.1-10.8.8-3.7-.4-7-.3-10.4-2-.2 1.4-.3 2.4-.2 3.8zM87.2 165.9c6 .4 11.9-2.5 15.6-7.3 1-1.2 1.9-2.4 2.5-3.8 0-.4.2-.8.3-1.1.6-1 .3-1.5-.8-1.4-.6-.9-2.1-1.1-1.7-2.7.3-1.1 1.6-1.1 2.7-1.5-.6-.9-.9-1.3-1.7-2.1-2 1.8-5.6 5.2-7 1.2-.6-2 .6-3.9.3-5.8a8.2 8.2 0 00-1.7-3.2c-3.1-2.5-7.5-1.5-10.8 0-2.2 1-2.7 1.5-3.1 3.8l-1.1 7c1.3-.6 1.6-2.2 2.4-3.2l1 1.7c.5-.2 1-.2 1.3 0 .7 1 .3 2.6 0 3.6 2.3-.2 3.2 2.2 1 3.2-2.3 1-3.3-1.8-3.4-3.5-.8 1-1.7.4-2.3 1-.6.5-.8 1.5-1 2.7-.4 2-1.3 4.7-.4 6.7 1.2 2.9 5 4.4 7.9 4.7zM264 73.2c-2 2.8-5.4 6.5-6.2 9.8 2.3-1.3 7-7.5 8.2-2.5.7 2.8-2.9 6.2-3.8 9 3.5-1.2 6-4.8 8.2-7.5 2.8-3.6 5.7-8.2 6.4-12.7.5-3.7-2-7-5.8-7.4-1.9-.2-3.9.1-5.8.6-.8.2-2 .4-2.8.9-1 .5-1.1 1.9-2 .7l-3.6 6.7c1.2-.4 3.6-2.2 5-2 1.8.3 2.2 3 2.2 4.4zM75 18.6c-5.3.1-10.9 1.2-15.9 3-1.2.3-6.5 1.8-5.4 4 .8 1.3 4.7-.6 5.9-1 5-1.4 10.3-2.3 15.6-3.2 1.2-.2 5.5-.2 5.8-1.8.2-2-4.6-1-6-1zm144 229.7c-2.8.4-5.6.2-8.5-.1-2.4-.3-4.8-1.3-7.3-1.3 0 2.6-.1 2.6 2.6 3.1l5.7 1c3.4.4 7.1 1.7 10.6 1-.1-.4-.4-3.4-.7-3.7-.2-.2-2 0-2.4 0zM172.7 59c.8.5 2.6 2.5 3.6 2.5-.4-2.3-3-6.4-6-5-.8.4-2.3 2.2-1.6 3 .3.4 3-.5 4-.5zm-28 20.8v-1.2c-1 .7-2.4 1-3.2 2l2.8 1.3.4-2zm87.4 62.4c5.2 1.8 10 4.2 13.9 8.4 3.3 3.5 4.9 9.9 5.7 14.5 2 11.7-1.9 22.4-4.5 33.5-1.3 5.7-3.2 11-5 16.6-1.6 4.8-3 9.8-5.2 14.3-1.8 4-4.2 7.7-5.8 11.7-.9 2.2-2.3 9.6-5.7 7.3-.9 2.3-1 2.1-.1 3.8.7 1.2 3 2.8 4.2 3.8 3 2.6 6.8 4.7 10.3 6.5 6.5 3.3 13.4 5.8 20 8.8 3 1.4 6.2 3 5.5 6.8a9.4 9.4 0 01-5.3 7 35.2 35.2 0 01-9.6 2.8c-1.8.3-2.2-.4-3.7-.7-1.6-.3-3.5.3-5.2.3-7.4-.1-14-2-20-6.3-2.2-1.6-5.4-5.7-8.2-5.7-1.5 0-1.2.8-2.5 1.3-1.5.7-4.2-.5-5.8-.8-3.3-.6-6.6-1.2-8.8-4-2.4-3-1.5-6.8-.5-10.2 1.1-3.8 3-7.7 3.9-11.6.2-1 .4-2.7.2-3.6-.4-1.5-1.9-2.4-2-4 0-.5.8-1.2.9-1.7.3-1 .2-2.2.3-3.4.2-2 .7-4 1-5.9.7-4.5 2.2-8.6 3.6-13 1.3-4.2 2.6-7.3 5.2-11 1.3-2 5.8-8.7 3.6-10.6-3 5.8-6.5 10.4-11.1 15-3.5 3.7-7 8.5-11.3 11a69.7 69.7 0 01-16.1 6c-2.6.6-4.7 2.2-7.4 2.5-3 .3-6 0-9-.7-.8-.2-3.1-1.5-3.9-1.4-1 .1-2.6 2-3.8 2.4-3 .9-5-.8-7.1-2.3-2.4-1.7-3.2-2-6-2.3-3.3-.2-6.6-1.4-10-2.1-5.8-1.3-10.8-3.9-16.1-6.6a55.8 55.8 0 01-16-12.5c-6.7-7.4-16.2-28-5.1-35.3-6.5-.9-12.5-3.7-13.3-11-.4-3.9.4-8.1 1.4-11.8l1.4-5c.4-.6.6-1.3.6-2 .3-.8 0-1.2-1-1.2-1.7-2-3-3.8-3.3-6.6-.1-1-.2-2.3.4-3 .3-.4.7-.6 1-.7 1.1 0 1.4-.4 1-1.4.4-1.5-.3-2.7 1.5-3.3l1.8.4c.8.4 1.2.1 1.5-.7 1.7-.7.9-1.7 3.3-.8 1.4.5 2.7 1.4 3.8 2.5 1.3-.8-1.7-6-1.8-7.6-.2-3.8 1.4-7 3.5-10.2 4-6.2 9.7-11.5 15.3-16.2a258 258 0 0134-25.2c-5-3.4-10.8-4.3-16.7-2.7-5.5 1.4-10 4.1-15 6.5-4.6 2.1-9.6 3-11-2.9-1.7-6.6 3.6-9.1 8.4-12-1.2-1-5.2-.3-6.6-.2-3.3.2-6.5 1-9.7 1.6l-4.5.6a55.1 55.1 0 00-22.5 8.7c-4 2.7-6.9 6.6-10.2 10.1-3.7 4.1-7.3 8.1-12.9 9.6-2.6.7-5.6 1.3-7.4-1-1.8-2.1-1.9-4.7-1.8-7.3.1-5.8 3-12.1 6.2-16.8 3.6-5.2 8.3-8.1 12.8-12.3-6.5.5-12.8 3.9-18.7 6.3l-3.8 1.5c-1.4.5-2.3.2-3.6.4-3 .5-5.5 1.7-8.3-.2C9.9 53 15.4 45.4 19 43c5.2-3.2 10.5-6 16.3-8.3-3.1-3.3-.5-8.1 2.4-10.5 3.6-3 8.2-4.7 12.6-6.3a76 76 0 0110.4-3.3c3.8-.8 8.2-2 12-2 3.6.2 6.8-.4 10.4-.5l9-.1c8.2-.2 16.4.3 24.3.9-6.3-18.3 35.2-12.7 44-10.3 8.1 2.2 17.3 4.7 24 9.9a39.6 39.6 0 0116 20.8c5-2.5 9.8-5.2 15.3-6.4 5.2-1.1 10.6-2.7 15.9-3.6 4-.6 9.8-1 13.1 1.7 3.7 3 5.6 7.8 7.8 11.9 10.5-9.9 22.2-17.1 37.1-16.6 14.7.4 24.3 13 26 26.6 2 15-4.7 30.7-13.8 42.3-4.1 5.2-8.3 10.3-13.8 14.2-2.8 1.9-5.6 4-8.6 5.5a46.2 46.2 0 01-6.9 2.7c-2 .5-1.7-.2-2.4 1.7-.7 1.4-.6 4-.9 5.6-.3 1.9-.5 3.8-1 5.6a89.1 89.1 0 01-10 26.5c2.7 1.2 6.3 1.3 9 1.6 3 .4 6.1 1.2 9.2 2 6.3 1.8 11.9 3.2 17.8 5.8 6.2 2.7 11.7 6.8 17.6 10 5.5 3 11 6.6 16 10.2 1.3.8 2 1.6 3 2.6 1 1.1 1.3 1.3 2.5 2.3.5.4 2 2.5 2.6 2.6 1.1.2 1-.6 1.8-1.8 1.8-2.3 4.3-4.1 6-6.5 1.5-2 3-4 4.6-5.8a69 69 0 009.7-13.8c1.4-2.6 2.8-5 4.4-7.5 1.5-2.5 4.2-5.7 7.2-5.5-.2-1.3-1-1.5.3-2.2 1-.5 2.6.3 3.2.7 1.8 1.4 1.9 4 1.8 5.9-.3 5-1.4 9.8-2.8 14.5-1.8 5.6-4 10.6-6.3 16-2 4.2-4.3 9.9-9 11.9 3.1 4.5 1.6 8.1-.5 13a23.1 23.1 0 01-6.7 9.4c-3.6 2.6-7.4.4-11-1.3-2.3-1-9-3.6-7.7-6.8-1.7-.2-2.8-1.4-4.3-1.8-1.6-.4-1.4.3-3 .5-1.4.2-3.4-1-4.7-1.4l-6.2-2.1c-5.9-2-11.7-4-17.6-5.7-11-3-22.2-4.7-33.2-7.3-2.2-.6-4.4-1-6.7-1.5-.4-.1-2.9-.2-3.2-.7-.5-1 1-5.9 1.2-6.9a64 64 0 00-.6-20.4c-.6-2.7-3-6.2-3-8.9.1-1.8 1.7-3.7 2.6-5.3 2.3-4 4.7-8.3 6.4-12.5a96.8 96.8 0 005.4-20.3c.6-3.5 1.3-7.4 1.5-11 .1-2.7-.1-5.6.3-8.4-1.5.2-3.7 1-5 .1-1.8-1-2.3-4-2-5.9-6 1-5.8-4.5-5.4-8.9-10.7 0 3-15.8 4.7-19.2.8-1.6.8.2.4-2.2-.1-1.1-.9-2.3-1.3-3.3a104.4 104.4 0 00-10.3-19 43.3 43.3 0 00-6.7 6c1.4-3.5 5.4-7.7 3.6-11.6-1.5-3.5-6.8-3.3-10-2.6-8.5 1.7-16.6 4.3-24.7 7.3 2.5 1.5 6.3.4 8.8-.7 3.1-1.4 6.4-2.8 9.8-3.5 2.9-.6 6.7-.4 5.8 3.5-.7 3.1-3.7 6.1-5.8 8.5-4.5 5.2-10.1 9.2-15.7 13.2-6 4.3-11.7 9-17.7 13.2-11 7.6-22.6 14.1-33.9 21.2-5.9 3.7-12.5 6.6-18.8 9.3-7 3-13.7 6.2-21 8.6-4 1.3-8 2.4-12 3.9-2.4 1-6.7 2.8-8.4 0-3.3-5.6 8.7-13 12-16.5 2.3 2.2-8.9 10.4-8 13.6.7 2.5 3.3-.7 4.6-1.4 2.1-1.1 4.6-1.7 6.7-3 4.3-2.5 9.4-5.5 10.3-10.9-.7-.7-.6-1.4 0-2 .4-.4.6-.8.8-1.2.3-.8.4-1.9.6-2.8.5-2.6-.7-5.1.4-7.7-6.6 5-13 10.6-19.3 16a41.5 41.5 0 00-13.6 18.4c-.2 1-.7 2-.6 3 0 2 .3 1.5 1.8 2.1 1.6.6 3.8.6 5.5.7 1 0 5.2-1 4.4 1-.5 1.3-3.5 1.2-4.5 1.3-2.7.3-4.1 0-2.8 2.9.5 1.3 1.7 2.1 2.6 3.1 2.4 2.8 3.8 7 5.8 10.2 2.2 3.7 4.6 7.2 7.2 10.7 1.1 1.4 2.6 4 4 5s-.2 1 2.1.6c1-.2 2-.9 2.9-1 5.8-1.5 11.7-3 17.6-4.8 7.7-2.2 15.7-4 23-7.2 6.5-2.9 13-6.3 19.5-9.2 2-.8 3.8-1.4 5.3-3 1.8-1.8 3.3-4.2 5-6.2 2.8-3.4 5.4-7 8.5-10.2 2.3-2.4 6.3-6.8 9.5-7.8 6-1.8 2.8 7.4 2 9.7 1.4.3 2.2-1.5 3.9-1 2 .7 2.2 3.3 2.4 5 .1.4-.5 1.3-.3 1.6 0 .2 1.3 1 1.6 1.3 1 1.3.7 2.9.4 4.3-1.8 7.2-8.2 12.5-12.9 17.9 2.1-.4 3.7-1.6 5.6-2.2 2-.6 3.8-.5 5.7-.7 2-.2 3.8-.9 5.8-1 2.1 0 4.2.6 6.3.9z"
                  fill="#000"/>
            <path fill-rule="evenodd" clip-rule="evenodd"
                  d="M9.7 76.9c-1.2.7-1.5 1.5-1.5 3.2 0 .7 0 3.4 1 3.3 1-.1.5-5.6.5-6.5zm-6 4.3c.6-5.6 2.6-11.2 7.4-14.7 1.2-.9 2.6-.8 3.9-1.4.8-.3 2-1.8 2.9-1.6 3.3.6-.5 5-1 6.1-1.8 3.5-1.7 6.7-1.6 10.5 0 2.9.6 7.8-.8 10.4-1.6 2.8-5 1-7-.7-2.3-2-4.1-5.4-3.8-8.6zM61.3 97.7c0 3 2.6 1 2.5-1.2-.1-3.3-2.6-1.3-2.5 1.2zm13.5-17.2c-2.7 2.5-4.9 3.9-5.4 7.7-.4 2.9 0 5.8 0 8.7 0 4.9-4 10-8.2 4.4-3.1-4.1-2-10.5.5-14.6 1.4-2.2 3.3-4.3 5.5-5.7 1.6-1 6.3-3 7.6-.5zM36 155.8c-.3.8-1 3.8.5 3.1 1.4-.6.5-2.6-.5-3.1zm-8.1-9.6c-.2-1.1-.1-8.4 1.9-7.9 1.6.5 1.8 4.2 2.5 5.5 2.4 4.8 7.9 7.8 9.8 12.8 2.1 5.6-4.3 5.8-7.7 3.5-4-2.6-6.4-9.2-6.5-13.9zM23 116.3c.8-1.1 1-1.8.4-2.8-.6.7-.5 1.7-.5 2.8zm.6 5.3c-4.6.5-4.8-7.9-4-10.7.6-2.3 2-4.8 3.3-6.7.3-.3 3-3.7 3.4-3.7 2 0 1.5 2.2 1.3 3-.7 2.6-1 4.8-.8 7.7.2 3.1 1.7 10.5-3.2 10.4zM231 49c-6.5 5.5-12.7 11.4-19.8 16.2-3.5 2.3-7.1 4.4-10.6 6.8a36.3 36.3 0 01-5.5 3.1c-1.7.8-2.9 1-1.4-1 1-1.2 3-2 4.4-3 2-1.3 4-2.8 6-4 3.8-2.1 7.5-3.9 11-6.5 3-2.3 6.1-4.6 9-7 1.3-1 5.4-6 7-4.5zM231.2 68.7c3 2.5-4.4 9.4-6.1 11-1.8 1.6-3.7 3-5.6 4.5-.7.5-4.4 4-5.3 3.6-1.9-.5.5-2.7 1.2-3.3l6-5.6c1.9-1.7 3.8-3.3 5.6-5.1 1.4-1.5 2.6-4 4.2-5zM13.5 169.5c-.8-1.7-2.1.2-1.4 1.1.6.8 1.3-.7 1.4-1zM9 166c.4-2.6 1.4-4 3.8-1.8 1.7 1.5 5 5.9 4.8 8.2-.5 3.1-3.9 2.3-5.7.6-1.8-1.6-2.6-4.7-2.9-7zM14.4 217.2c-3-.2-5.6-2.5-6.9-5.2-1-2.3-2-6 1.7-4.7 2.5.8 12 10.3 5.2 10zM50.8 202.5c-2.3.5-4.6-1-6-2.7-1-1.1-3-4.9-2-6.4 1.5-2.1 3.7 2.2 4.4 3 1.2 1.4 5 4 3.6 6zM52.9 144c-1.9-.8-3.5-1.9-4.3-3.9-.4-1.2-.8-5 1.2-5 2.4 0 7.9 8.5 3 8.9zM40.1 104.1c2.4 0 3 1.3 3.4 3.3.2 1.3 1.3 5.7.1 6.6-1.6 1.3-4.2-1.7-4.8-2.9-1-2.4.4-4.7 1.3-7zM82 236.8c1.2.5 3.9 1.7 2.8 3.6-1 2-4.1 0-5.3-.8-.5-.4-3.6-2.7-3.4-3.5.2-1.6 4.5.5 5.9.7zM3.8 116.1c.8 2 1.7 9-2.5 5.2-1.3-1-1.5-2.5-1-4 .6-2.4 1.5-2 3.5-1.2zM230 90.3c-.9-2 1.4-3.2 2.7-4.4.8-.8 4.2-5.2 5.3-5 2.4.6-6.8 8.5-8 9.4zM40 229.5c2.3-.4 2.8 2 4.3 3.1.6.5 2.7.9 2.3 1.9-1.2 2.5-6.6-3.3-6.5-5zM58.9 171.3c1.5-.6 6 2.8 4.7 4.3-2 2.2-4.6-3-4.7-4.3zM91.2 220.9c-1.2 0-5.9-1.4-4.1-3.4 1.2-1.3 4.5 2.1 4 3.4zM34.8 211.4c-1.1.5-5.1-.5-3.9-2.2 1.2-1.6 3.9.9 3.9 2.2zM67.5 218.9c1.3-.2 2.2.6 2.4 2-1.6.2-2-.2-2.4-2zM236 27.9h1.6-1.6zM227.4 141.2h-2.5 2.5zM115.8 8.5l-.1 2.5V8.5zM369.2 146.8c.3 1-.1 1.1-1.2.5l1.2-.5zM346 217.8h1.2-1.2zM268.3 152.3c-.7.6-1.4.6-2 0h2zM253 83zM288.3 20.2zM88.3 12h-2 2zM105.1 12h-1.6 1.6zM114 12.7c-.5.2-1 .3-1.5 0h1.6zM65.4 13.8l-2 .4 2-.4zM253.4 179.4v0zM28 146.4v0zM371.7 145h-2c.7-.5 1.3-.4 2 0zM231.9 142.1c-.6 0-1.1-.2-1.7-.3l1.7.3z"
                  fill="#000"/>
            <path fill-rule="evenodd" clip-rule="evenodd"
                  d="M82.2 236.7c-.7 0-1.4-.2-2-.4l2 .4zM219.8 120v-1.2 1.2zM90.4 12H89h1.3zM157.4 2l-1.2-.4 1.2.4zM206.1 276.4h.8-.8zM18.4 58h1.2-1.2zM292.8 20.6l-2-.1 2 .1zM77.3 18.7h-2.9 2.9zM270.5 102.5v0zM220.4 248.1h-1.6 1.6zM278.5 32.6l2.4-.2c-.7.6-1.6.2-2.4.2zM216 248.4h-1.3 1.2zM201.8 255.5v0zM264.2 57.6l1.6-.2c-.5.4-1 .2-1.6.2zM85.5 165.8l1.6.3-1.6-.3zM170.5 58.8c.7-.6 1.4-.5 2 0h-2zM145 79.3v-.8.8zM264 71.6v0zM83.5 156.6c1 .3 2.7 1.2 3.8 1.1.8 0 1.5-1 2.3-1 2.2 0 1.8 2.4.7 3.8-2.8 3.6-9.1-.4-6.8-3.9zM92.4 143.6c3 .8 1.5 7.2-1 7.7-3 .5-3.4-4.8-2.9-6.7 1.6 1 .6 4.1 2.5 3.2 1.2-.5 1-3.1 1.4-4.2z"
                  fill="#000"/>
        </svg>
    </symbol>
    <symbol id="second-picture">
        <svg width="375" height="288" fill="none" xmlns="http://www.w3.org/2000/svg">
            <path fill-rule="evenodd" clip-rule="evenodd"
                  d="M116.9 130.8l4.1 41.3 22.3-12.7V199c0 .8-.4 3.3 0 3.9.4.5 3 .5 3.7.6l12.6 1.6c11.2 1.2 23 3 34.2 1.6a98.8 98.8 0 0028-8.7l9.1-4.5c.7-.4 3-1.2 3.4-1.9.2-.5-.4-2.5-.5-3.1l-1.1-7.6-5.3-35.1 10 9.8c.7.8 2.1 3 3.2 3.4.8.2 2.7-.6 3.5-.7L261 155c1.3-.2 4.2-.2 5.3-1 .6-.4.7-1.3.9-2l4-16.1c.3-1 1.7-4 1.3-5-.1-.3-.7-.6-1-.8L246 114.7l-13.9-8.5c-1.9-1.2-4.3-3.3-6.5-4-1.3-.4-3.3 0-4.7-.1l-8.6-.3c-.5 0-2-.3-2.4 0-.3.2-.2.5-.3 1-.3 1.3-.3 2.7-.4 4 0 1 .1 3-.4 3.9-.3.6.1.3-.3.6-.5.4-2 .3-2.6.3l-8.4 1c-3.3.4-6.7 1.1-10 .8-5.2-.5-10.6-.5-15.6-1.6-1.3-.3-1.8-1-2.8-2-2-2-3.9-4-5.9-5.8-1-1-.5-.8-1.5-.5-1.3.5-2.5 1.6-3.7 2.3l-13 7.9-26.4 16.1-1.7 1z"
                  fill="#FF7A00"/>
            <path fill-rule="evenodd" clip-rule="evenodd"
                  d="M370.1 132.5c-5.5 20.7-16.4 43.3-38.5 50a40.4 40.4 0 01-16.2 2.1h-1.5c-1 0-.1.4-1.2 0-.7-.2-1.5-.8-2.3-1-2.2-.8-4.5-1-6.8-1.5a175 175 0 01-16.4-5.1c-2.5-1-4.8-2.3-7.2-3.5-2.3-1.3-4.9-2-7.3-3.2-2-1-5.2-2.1-6.5-3.8-1.5-1.8.5-5.7 1-7.7 2-6.6 4.3-13 5.8-19.8 5 5.8 11.9 9.4 19 11.7 4 1.2 8 2.1 12 2.7 3.7.5 7.7 1.1 11.4.4 2.8-.6 6.2-1.8 8.2-4 .7-.7 1.6-2.1 1.2-3.2-.5-1.4-2-.7-2.8-1.8-.7-.9-.6-3-.8-4.1-.4-2-.9-3.9-1.6-5.8-1.2-3.6-2.8-7.3-3.2-11.2-.3-3.4.4-6.6 2.1-9.5.8-1.4 2.8-5.2 4.8-5 2.1.2-.8 9.2-.9 11-.3 7.3.6 15.1 4.4 21.5 1.4 2.5 3.5 5.4 6.6 5.7 3.2.3 5.9-2.3 7.4-4.9 3.8-6.3 1.9-15 0-21.5-2.4-8.1-8.5-13.7-12.4-21 5.8.6 8.9 4.2 11.9 8.9a53.5 53.5 0 017 17.2c.6 3 .2 6 .2 9 0 1.1 0 4.8 1.7 4.7 1.7-.2 2.3-4.4 2.6-5.7l1.7-8.8c1-5.2 1.4-10.6 2.5-15.8.1-.9.5-3.3 1.8-2.6 1 .5.9 4.2 1 5.1l.1 6.5c0 3.2-.6 6.5-.3 9.7.3 2 1.4 4.4 2.8 1.6 1.3-2.8 1.6-6.3 2.4-9.3.8-3.1 1.6-6.3 3.3-9.1.5-.8 1-2 2-1.6.8.2 1.4 2 1.6 2.7a46.5 46.5 0 01-.6 20zM263.7 138l-1.8-.2c-.4 0 0-.7-.9-.6.2.5.5.7 1 .9-1.4.4-2.4-.7-3.2-.8-.9-.1-1 0-1.8.9-.9-1.1-.7-.4-1.5-.4-.3 0-.3.4-.7.3-.4 0-.4-.6-.7-.7-1.2-.3-2.5 1.6-4 0-.3 1.6-4.2-.5-5.7-.2-1.6.3-1 .9-2.2-.1-1.2-1-.9-.3-2.3.4l-.7.6c-1-.1-1-1.1-2.2-1-1.3 0-1.9 1-3.1-.3-.3 1-.3.6-1 .8-.3.1-.6 0-.8-.3-.1.3-.3.5-.6.5-.6 0-1.9.2-2.5-.1-1-.5-.2-.7-.8-1.3-.3 1.5-1 1.2-2.3 1.4-1 0-1.2-.2-2.1-.4-1-.1-2.2.2-3.1.4-.4 0-1 .3-1.3.2-.4 0-.5-.3-.7-.4-.3 0-.2-.3-.7-.4l-1.1.2c-2.2.4-4.2.4-6.3-.4 1 1.7-2.4.8-3 0-.7 1.2-1.6.4-3.1.5-1.5 0-3.7.5-4.3-1.3-.1.4-1 1.4-1.3 1.6-1 .5-1-.2-2-.5-1.1-.4-.9.3-1.6.5-1.3.2-2-.7-3.1-1.1 0 .7 0 1.2-.7 1.6-.6-2-2.6.2-2.3-2.6-.7.5-1.8 1-2 2 1.3-.4.1.4 0 .4-.1.1-.7-.7-.8-.8l-.1 1.2-1.4-1c-.4-.2.1-.6-.5-.7-.3 0-.7.8-1 .8-.6.1-.3-.7-.5-.6-.4 0-1 .5-1.2.5-.8 0-.3-.4-1-.6-1-.3-1 .4-1.8.7-2 .6-1.7-2.2-3.7-.3-.4.4-.7 1.1-1.3 1-1.3 0-.9-1.5-.6-2.3.3.1-4.8 2.7-4.8 2.6 0-.6.9-1 .2-1.6-.6 1.2-1.2 1.2-2.6 1.5-.6 0-.8.2-1.5 0-.4-.2-.7-1-1.1-1 0 0-.8.7-1 .7-.6.3-1.1 0-1.8.1-.6.1-.9.6-1.5.5-.8-.2-.3-1.1-1.4-.9-.4.1-.6.8-1.2 1-1 .2-2-.2-3 0l-2.1.3c-.6 0-.3-.4-1.3.1l-.5-1-1.5 1.3-.2-1.2c-.7.7-1.7.9-2.7 1-1.1 0-2 .2-3 .4-.3.1-1.2.2-1.5 0h-.3l-.2-.5c-.1-.5-.4-.5-1-.1-.2 0-.8-.4-1-.3-.7.2-.6.8-1.3.7-.5 0-.7-.7-1.2-.8-.7 0-1.3.7-2 1 2-.6-2.5-.2-1-.2-1 0-2 0-2.8.4-.4-.3.1-1-.3-1.2-.5-.3-.5.3-.5.4.2-.1 0 .4-.2.5-.8.3-1.5-.4-1.5-1.2-.8 1-1 .6-2 .7-1 0-2 .6-3 .6-2 0-3.4-.7-4.1-2.5 2.2.2 4.4-1.2 6.5-.9.7.2 1.2.7 1.8.6.7-.1 1.3-1 2.2-1 2.2-.2 4.3 0 6.5-.4 2.5-.4 5.2-.6 7.8-.4 2 .1 3.7-.6 5.7-.8 2.6-.2 5.3-.2 8-.3 2.7-.2 5.6-.6 8.3-.5h2.4c.4 0 .7-.2 1-.1.5 0 .8.5 1.3.5.8 0 1.7-.7 2.7-.8h5c1.5-.2 3.1-.5 4.6-.5 1 0 1.3.9 1.9 1 1 .2 6.5-3 7-.2 2.9-2 6.7-.3 9.9-.6 4-.5 8.2 0 12.3-.2 4.2-.2 8.5 0 12.7.3 1.7.2 3.4.4 5.1.3.8 0 1.7-.3 2.5-.1.1 0 1.6 1 1.4 1 .8-.6.2-.7 1.6-.8l3.1.3c2 0 3.8-.2 5.7-.1 1.6 0 3.1.3 4.7.3 1.7 0 3.8 0 5 1.4l-.4-1.3c2 .2 3.8.9 5.7.5-.5.5-1 .9-1.2 1.6 1-.2 1.8-.9 2.9-.9 1 0 1.1.5 2-.1l.4 2.2c1.4-.4.5-1.4.6-2.3 1 .4 2 0 1.6 1.6-.4 1.2-1.9 1.8-3 1.4zm-1.9 13.5c-.5 1.3-4.5.5-5.5.4l-3.8-.6a2 2 0 00-.5-.5l-.5.5c-.5 0-.5.6-1.2.5 0 .8.5.3 1 .6-1.2.8-.7 0-1.3 0a.6.6 0 00-.6-.3c-.3 0-.6.2-1 .4-.2.3-.4.3-.6 0l-.7-.3c-1 .2-1.3.7-2.5.6-1.7-.1-3.6.3-5.2 0-1 0-2.8-1.7-3.3 0-.7-1.3-1.8-2-2.5-3.3l9.6-.5c2.8 0 5.8.2 8.5 0 2.4 0 5-.3 7.5-.5 2.7-.3 3.6.3 2.6 3zm-83.4.2c1.1.3 2.2-.4 3.3-.2.4 0 1.2.8 1.4.8.3 0 1.2-.7 1.6-.8 2.4-.5 5.4-.5 8-.1 1.2.2 1.4-.4 2.6-.7 1.2-.3 2.9-.1 4.1-.2 3-.2 5.9 0 8.8-.3l9-.4c2-.2 7-1.3 8.7.2 1.4 1.3-.4 3.4-1.8 4-1 .3-1.6-.5-2.3-.4-1 0-.6 1.1-1.4.1-.5 1-3.6.6-4.5.7-1.9.1-3.5.5-4.8-1.3l.3 1.5c-1.8-.9-3.6-.6-5.1-.3-.8.2-3 1.3-3.9.8-.5-.3.4-.9-.5-1.1-.5-.2-1.3.6-2 .6-1.6-.1-1.1-1.2-2.8.2-.5-.5-.7-1.3-.6-2-1.2 1-1.1 2.7-3.2 2.4-.8-.1-1-1-1.4-1-.9-.4-1 .2-1.7.6-.3.2-.6.5-1 .5-.7 0-.8-.3-.9-.3-.4.1-1 .3-1.6.2-.5-.2-.6-1-1.5-.8-.8.1-.8.7-.7 1.6-.8-.1-1.3-.6-1.9-1-.6 1.4-1.9.2-2.6 1.4-1-1.1-1.6-.8-2.7-2l.2 1.4c-1-.1-1.4-.8-2.1 0-.8-1.3-3 .7-4.2-.7-.5 1.7-4 1.3-5.4 1.4-1.3 0-2.3-.1-3.6.2-1 .2-2.6.5-3.7.4-.6 0-1.4-.2-2.2-.1-1.3.1-2.3.7-3.6.4-2-.4-3.1-3-1-4 1.5-.8 4.1-.5 5.7-.6 2.7-.3 5.7-.8 8.4-.5 2 .1 4-.4 6-.6 1.7-.1 4.3-.4 5.3 1.2.4-.5.4-1.5 1.3-1.2zm-29.2 21.7c-.3-1.5 11.9-2.2 13-2.3 2.6-.2 5.2-.4 7.7-.4 2.1 0 4 .3 6.1 0 2-.3 4.4-1 6 .5.3-2 7.7-1 9-1 6.1 0 12 0 17.8-.3 3.4-.3 7-.6 10.3-.4 1.5 0 2.7.5 4.2.1 1-.2 2-.7 3 0 1.1.8 1.6 3.5.8 4.6-.5.8-1 .7-1.9.6-1.3-.2-2.3-.6-3.7 0l-.9.2c-1.5 0-3.7 1.2-5-.1.5.1 1.3-.9.6-1-.5 0-.8.5-1.2.7-1.4.7-2 .5-2.9-.9-1.6 1.5-1.8 1-2.5-.7-.6.4-.7 1.5-1.2 1.8 0 0 .3.7 0 .6-.4 0-.5-.5-.7-.5l-.3-.5c-.2 0-.3.3-.5.2-.5 0-1.8 1-1.3-.4-.7 1-1 .4-1.2-.4l-2.4 1.8c-.4-1-1-.8-1.8-.4.3-.7.1-1.4-.5-1-.3.4-.6 1.3-1 1.7-1.4-1.5-2-1-3.9-.9-.8 0-1.7.2-2.4-.3-.6-.4-1-1.8-2-.6.3-.3 0 1.7-.1 2-.5-.2-.9-.6-1.2-1-.6 1.1-2.1 0-3.4.3-2 .4-4 1-5.8-.5-.1.5-1.6 1.1-1.6 1.1.1-.8.7-.5-.4-.7l-.7.4h-2c-2.8-.1-5.3.5-8 .7-.9.1-2 .2-2.8-.1-.9-.3-.9-.8-1.7-.5.2 0-.6.8-.6.8l-.8-.4-.1.6h-.6c-.6 0-1.2-.6-1.7-.6l-1.4.6c-1.1-.5-.8-.4-2.2 0-1.4.3-2.7.2-4 .4-4 .6-1.6-1.4-2.1-3.8zm-3.5 19.8c-.8-1 1.2-1.4 1.8-1.5 1-.2 2.5.1 3.2 0 1-.3 2-.9 3.2-1 1.5-.3 3-.3 4.6-.4l1.6-.2c.7 0 1 .4 1.6.4 1 0 2.2-.6 3.3-.7 1.3-.2 2.6-.2 4-.3h8.2c1.3 0 4.7-1.4 5.3 0 .9-1 3.2-.9 4.4-1l6.6-.3c2 0 4 .3 6 0 1-.1 1.3-.4 2.4-.3 1 .1 2.2-.3 3-.1 0 0 .9.5.6.6.3 0 .3.2.7 0 .5 0 .2-.7 1.2-.9 1.6-.3 3.7 0 5.3 0l4.7-.1c.7 0 1.6-.2 2.3 0 .3 0 1 .5 1.3.4.9-.1 1.3-.7 2.4-.7h3.7c1.2-.1 1.4-.3 2 .7.6 1 .7 2.3-.4 3 .7 0 1.6 1 .8 1.5-.5.3-1.6-.5-2.2-.4-.8 0-1.4.5-2.2.5-.9 0-1.8.2-2.6.3-1 0-1.6-.4-2.5-.3-.7.2-.8.8-1.7.3-.5-.3-.6-1.3-1.2-1.3-.8 0-.5 1-1 1.5 0-1.5-1.2 1-1.7-.8-.4.6-2 1.5-2.8 1-.7-.5-.5-1.5-.8-2.2-.5 1.3-1.8 2.6-1.7.3-.6.7-2.3.6-1.9 2-.5 0-.6-.8-1-.8l-.8.2-.6.3c.5-.1-1.6-.3-1.3-.3-.5 0-1 .4-1.7.4l-1.6-.3c-1.3-.1-1 .2-1.9.6-.3.2-.4.4-.9.4-.3 0-.4-.5-.4-.5-.5 0-.2-.2-.9 0l-.3.3c-.2.4-.6.5-1 .3-1 .2-4.6 1.2-4.3-.6l-1.6.8c-.3-1.5-3.2.5-3.9.6-.9 0-1-.2-1.7-.4-.2 0-.5.4-.8.4-.9-.2-1-.3-1.2-1.3-.6 1.2-1.2.7-2.3.9-.3 0-.4.5-.8.4-.3 0-.3-.5-.4-.6-.2 0-.2-.4-.4-.4-.3-.1-1.2.7-1.5.8-.6.2-1.6.7-2.2.6-.7-.2-.4-.8-1.4-.7-1.7.1-2.3 1.5-3.4-.7-.4.9-.4 1.1-1 1.4-.6.2-2 0-2.7 0-3-.1-6 .9-9.1.6-1.3 0-2.5-.4-3.8-.1l-4.2.7c-.8 0-2.3.2-2.6-.7-.4-.8.8-1.4.2-2.3zm6 33.6c-4 2.6-7.3 6.3-11 9.3-3.6 3-6.5 6.5-9.8 10-3 3-5.8 6-9.4 8.4-2.4 1.5-4.4 3.4-6.8 4.8-1.8 1-4.5 2.4-3.6-.8.9-3.3 2.5-6.7 4-9.8 2-4.4 4-8.8 6.2-13.1.9-1.7 1.3-3.3 2.6-4.6 1.5-1.4 2.5-3.2 4-4.6 6.6-5.6 16.5-1.3 23.8.4zm12.4 1.9c-1.8 1-3.8 1.2-5.7 1.8-1.7.5-3.2 1.5-5 1.5 1.7-1.2 3-2.8 4.8-3.7 2-1 3.9-.3 5.9.4zm78.9 7.8c-6.6-2.2-12.8-5.5-19.2-8.1-1.1-.5-9.8-3.3-9.7-4.7 6.1-1.1 12.4-3 18.5-1 5.6 2 10 6.5 14.4 10.3 1.1 1 8 5.5 7.4 7-.4 1-3.8.7-4.5.5-1-.3-1.6-.9-2.4-1.6a13.2 13.2 0 00-4.5-2.4zm-12.2-37.2c1-1 1.6-2.3 2.5-3.2 1.3-1 3.3-.5 4.6 0 4 1.7 7.5 4.6 11.5 6.4 4.5 2 8.3 4.6 12.3 7.3 3.7 2.5 7.7 4.6 11.4 7 3.8 2.3 8.1 4 12 6.2 4 2.4 7.8 4.8 11.6 7.4 6.8 4.7 13.8 9.5 18.8 16.1a71 71 0 016.9 11.1c1.7 3.5 3.5 8.3 1.3 12-2.1 3.4-5.8 6.1-8.8 8.7-1.2 1-2.3 2.2-3.8 2.6-1.8.6-4 .4-5.9.6-10 .8-19.5 0-29.4-1.8-9.6-1.7-19.2-2.7-28.9-4a197.5 197.5 0 01-23.2-4.2c-2-.6-3.6-1.9-5.6-2.4-8.6-2.1-18.4-3-26.9-6.5 7.5-3.2 15.5-5 23.2-7.6 8.1-2.8 16-5 24.6-5.8 4.4-.4 8.3-1.6 12.5-2.7 4-1.2 8.3-1.5 12.4-2 1.8-.2 7 .1 7.7-2.3 1-3.6-4.3-4-6.5-3.7-3 .5-5.6 1.3-8-1.3l-7.3-7.9c-4.6-4.7-9.4-10.3-15.9-12.4-8-2.6-17.1-.1-25 1.3-8.4 1.6-16.7 3.1-25 5.4-3.4 1-7.7 3-11.3 2.7-3.4-.3-7.4-.9-10.7-1.9-1.6-.5-2.8-1.3-4.2-2-1.7-1-3.7-1.7-5.6-2.5-3.8-1.6-7.5-3.1-11.5-3.7-3.5-.6-7.2-.9-10.5.3a21.8 21.8 0 00-8.5 6.2c-2.5 2.8-4.5 6-6.5 9-1 1.6-2.2 2.9-3.2 4.3-.9 1.3-1.4 2.7-2.3 3.9-2 2.6-3.4 6-4.6 9.2a26.8 26.8 0 00-2.5 11.3c.1 1.5.2 3.4.8 4.7.7 1.7 1.7 1.6 3.1 2.2 2.5 1.1 3.2 4.1 6.4 3.6 3-.6 5.6-3 7.8-5 2.9-2.6 5.6-5.3 8.3-8 2.8-2.8 5.6-5.9 7.8-9.1.9-1.3 1.6-2.7 2.6-4 1.3-1.4 2.8-1.6 4.6-2.2a448 448 0 0147.6-13.6c4-.8 7.8-1.8 11.6-3 4-1 6.2.1 9.5 2.3 7 4.6 15.2 7.9 23 10.9 2.4 1 6.3 1 8.2 2.8-11.3 1.8-22.1 5-33 8.4l-16.2 4.6c-5.5 1.5-10.6 3.6-16 5.3-5.3 1.8-10.9 2.5-16.2 4-5.5 1.7-11 2.9-16.6 3.9-5.6 1-11.2 2.1-17 3l-7.7 1.5c-2.5.5-5 1.9-7.5 2.2-11.3 1.3-22.4 4.4-33.6 6.2-8.4 1.3-23 3-28.5-5.4s1.2-18.3 7.2-24.4c3.8-3.7 8-7 12.4-10 4.7-3.2 9.2-6.6 13.9-9.7 10.6-7.2 22.2-13 33.6-18.7 5.5-2.8 10.8-5.7 16.2-8.7 2.6-1.5 4 .9 6.2 2.5 1.6 1.3 4.7 4.5 7 3l.2 1.6 2-.9c.5 1.2.5 2 1.7 2.6.8.3 2.5.8 3.2.1l.5 1.4c.6 0 .7-1.9.9-2.3a8 8 0 004.6 3.4l-.3-1.4c.6-.4 1.4 1.2 1.7 1.6 1 1.1 1.7 1 3 0l.5 1.2c.2-.1.7-1 .8-1.1 0 1.2 2.3 1.4 3.1 1.2l-.5-1.1c3-.4 4 2.7 6.9 2.6 2-.2.4-.6 1.6-1.5 1-.8 1.2 1 1.3.9l.4-.7c.4 1.4 3.5 2.7 3.1.3 1.2.5 2 1.3 3.4 1.5 1.6.2 3.3-.2 5-.3 3.4-.3 6.6-1 9.7-2.6 1.9-1 3.9-1.8 5.6-2.9 1.4-1 4.2-3.8 6.1-2.6-.5-1.4 1.9 0 2-2l1 .9c.3-.5.2-1.3.5-1.7.4-.6.6-.3 1-.6.4-.4.7-1.4 1.2-1.6.5-.3 1 0 1.6-.2.8-.4 4.2-4.2 3.6-1 1.5-.5.4-1 .5-1.9.4-2 1.3-.6 2.2-.4 1.5.3 1.4-1 2.3-1.8.7-.8 2.1-1.2 1.6-2.6.6.3.7 1 .8 1.5zm-88.5-42c-1.2 1.3-2 .7-3.3.5-.2-.4-.4-.5-.7-.2l-1.3.5c-1 .2-2.1.1-3.1.5 0-.3.3-1 .1-1.3-1 .7-1.7 1.2-3 1.2-1.2 0-3-.8-4 .2v-1.1c-.5.2-.8.5-1.2.8 0-.5 0-1-.4-1.4-.8 1.4-1.5 1.5-3 1 .3 0-1.3-1-1.3-.7-.4-2 7.4-1.9 8.3-2l6.2-.5c2-.2 3.4-.5 4.8 1.1-.6-2.3 5-2.2 1.9 1.4zm-90.5-36.7c.3 3.6 1 7.4-.3 10.8a19.5 19.5 0 01-5.8 7.7c-5 3.7-9-.8-9.8-5.8-.7-5.2.7-11.5 5.2-14.7 2.7-2 5.2-1.8 8.3-1.2.7.2 2 .1 2.3.8l.1 2.4zm65.4 47.6c-.8.5-1.7.7-2.5 1.3-.2.2-.3.7-.6.8-.5.3-1.2.1-1.8.4-.8.4-1.4 1-2.5 1.4-1.5.6-2.8 1.4-4.3 2.1-2.4 1.3-5 2.4-7.5 3.4-1.3.5-4.8 1.5-4.7 3.4-.3 0-.6-.6-1.1-.5-.9 0-2 1-2.8 1.2-1.6.5-2.8.5-2.8 2.5-.5-.3-.6-1.2-1.3-1.3-.8 0-1 .7-1.7 1-.7.3-1.6 0-2.3.3l-1 .9a4 4 0 01-1.2 0c-1.4.2-2.8.8-4.3 1.1-1.5.3-2.5.4-1.9 2.1-1.5.3-2-1.3-3.7-.7-2.1.7-4.2 1.2-6.4 1.7-1.2.2-2.4.7-3.5.9-.9 0-1.6-.2-2.4-.1-1 0-1.8.5-2.8.5l-3-.3c.2.4.3.8.6 1.1-.7-.1-1-1-1.6-1-.5-.2-1 .4-1.5.3-.3 0-.1-.7-.5-.8-.3-.1-.5 0-.8 0h-1.7c-.4.2 0 .6-.1.6-1.3 1-1.3.5-2-.5-.8-1.5-1.8-.6-3.4-.8-1.7-.3-3 .4-4.8.3-1.8 0-4-1.5-5.6-2.3-3.6-1.7-7-3.4-10-6a48.6 48.6 0 01-13.3-18.8c-3-7.8-3.5-16-3.3-24.2.2-5 .6-10 1.4-14.9.5-3.4.6-9.4 4.4-11 .7 8-1.4 16 0 24 .3 2.3 1.3 5.5 3 7.3 2.8 2.6 3.4-1.2 3.7-3.3.4-3.8 1.2-7.7 1.8-11.5.6-3.8 1-7.7 1.9-11.5.3-1.4 2.7-11.5 4.5-11-.4 7.3-1.3 14.6-1.4 22 0 3-.2 6 .2 9 .2 1.5 1.6 6 4 5.6 2.2-.3-.2-3.5-.5-4.7-.5-3.2.2-7.2.7-10.3a42 42 0 016.6-17.2c3.1-4.5 8-8.8 13.8-8 2.5.3 4.4 1 5.7 3.2 1 1.8 4.8 3.8 2.6 6-2 2-5.4.4-7.6 0-2.8-.6-5.8 0-8 1.7-4 2.8-6.3 7.8-7 12.4-1 6.3 1.6 22.8 11.4 19.1 6.5-2.5 11.4-11.3 10.9-18-.2-2.7-1.3-7.9 2.5-8.6 4.8-1 5.4 4.3 5 7.8a30 30 0 01-6.4 13.6c-2.7 3.4-5.7 5.6-8.9 8.4-1 .8-3.3 2.7-3 4.3.5 1.7 4.3 2.2 5.8 2.5 7.4 1.4 15.8.1 23.3-.9 15.3-2 30.4-6.9 42.9-16 .5 5.6 1.1 11.2 1.4 16.9 0 2.7.1 5.5.4 8.2.2 1.6 1 4-1 5zm-42.4 19.6c-.6.3 0-1.6 0-1 .8.3.8.7 0 1zm63.4-67.9c1-1 3.6-3.5 4.4-1.1.3-1 .4-2.5 1.6-1.2.4-1.7 5.6-1.5 7-1.6 4-.2 8.2-.3 12.3-.8 8.5-.8 17.1-.4 25.6-.4 1.8 0 3.7 0 5.5.2 1.8.2 3.6 1 5.4.7 1.6-.2 2.6-.7 4.3-.5 2 .2 3.9.4 5.8.4l26.4.3c1.7 0 3.7-.3 5.3.4.6.3 1.3 1.2 1.7 1.3.6 0 .2-.7 1-.4.9.5.2 2-.5 2.3.4-.2-.6-.3-.5-.3-.5 0-1 .4-1.5.4-.8 0-1.4-.6-2-1-.1.2.3 1.4-.2 1.4-.3 0-.6-1-.7-1.4-2 1.8-4 .8-6.4 1-1.8.2-5.4 1.3-6.6-.5 0 .4-.2.8-.4 1-.4.6-.7.5-1 0l-.9.1c-.6 0-1.3-.3-2-.3-.9 0-.7.6-1.4.6-.4 0-1.5-.6-2.2-.6-1.2 0-2.4.4-3.7.3-.8-.1-1.5-.8-2.3-.8-1 0-1.4.7-2.2-.4-.2 0-.3.6-.3.6l-.9.2-1 .3c-.4 0-.6-.3-1-.3-.7 0-3 .7-3-.7-2.6 1-4.7.6-7.4.8-1.2.1-2 0-3.1-.3-1.4-.2-2.4.1-3.8.2-1.4 0-1.8-.5-3-1-.5-.3-.8-.5-1.3-.4-.4 0-.1.6-.2.6-.5.2-.9 0-1.6 0-1.2.1-1.7 1.2-3 .2l1.3-.1c-1.2-.6-2.9-.8-2.6 1-1 0-.1-.8-.6-1-.5-.3-1.1.1-1.8.3-1.7.6-3.1.3-5 .2-2-.1-6.7 1.6-8.2-.6 0 .5-.5 1.7-1.2 1.7-.2 0 .4-1.4.5-1.5-.4.7-1.9.8-2.6 1.2l.2-1.2c-.7.8-1 .3-1.8.6-.4 0-1 .8-1.2.9-.4-.5-.8-.6-1.4-.6h-1c-1.5 0-2.8.9-4.2.3-1.3-.4-1.8-1.7-2.5.3l-.6-1-.7 1c-1-.6-1-1-2-.7a1 1 0 01-.9 0l-.2.5c0 .5-.1.7-.4.5l-.6-.3c-.7 0-1.6.2-2.4.1-.3 0-2.1-1-2.3-.9zm22-12.8l.2.4c-1.2.6-1.5.3-1.6-1 .6 0 .7 1 1.3.6zm.6-.7c.6.3 1.3.7 1.8 0 .3 1.1-2.3 2.5-1.8 0zm3.7.5c1.1.8-1.7.1-1.7.1.5-.5 1-.5 1.7-.1zm10-4.5c.5 2 1.6 2 3.4 1 2.6-1.3 3-3.6 3.2-6.3.2-2.5.5-3.5 3.2-3 1.8.4 3.4 0 5.3 0 2 0 2.7.3 2.8 2.3.2 2 .6 3.6 2 5.2a17 17 0 005.6 3.4c1 .5 2 1 3 1 .5.1 2.8-.2 2.8.6 0 .5-3 2-3.4 2.2-1.5.8-3 1.5-4.5 2a36.9 36.9 0 01-11.3 1c-6.2 0-14.6-2.6-18.3-8l6.3-1.4zm-.5-17.6c-1-.8-1.6-2-2.4-3l-1-.8c-.5-.3-.7 0-1-.5-1-1.6 1.8-3.8-1-4.4-1-.2-3.4.6-3.7-.8-.4-2 3.4-2 4.3-3 1.7-2 .5-5.4 1.6-7.7 1-2.1 3.6-2.5 5.7-3.2 2.8-.9 5.7-1.4 8.7-2.1 2-.5 5.4-2.6 7.3-.8-3 .7-1.3 1.7.7 2.3a33.5 33.5 0 0013.9.8c2.1-.4 4.5-2.3 6.8-1.8-1.3 2.1-5 3.3-7.3 3.9-1.1.3-1.9.2-1.7 1.6.1 1.4 1.4 2.8 1.6 4.3.4 1.9 0 3.6-.6 5.4-.7 1.8-.8 2-.3 3.7 1 2.7-1 5.6-2.8 7.5-7.4 7.8-21.4 4.8-28.8-1.4zm18.7-46.3c0 .1 0 0 0 0zM195 58c-.3.2-2 .7-2 0 0-.9 1.7-.6 2 0zm4-18.5c-.4-.4-1.6-.2-.8-1.4l.8 1.4zM171.3 32c.5-1.4 1.1-2.6 1.3-4 .2-1-.1-2 1.1-2.1-1.5-.7-1.6-3.5-1.7-4.9 0-2-.7-4.6.2-6.4.8-1.9 2-1.8 2.4.4.1.9-.4 1.2-.5 1.8-.2 1.2.2 1 1 0 .3 1 .4 2.3 1.7 2.3 0-.3-.6-.8-.4-1.2.2-.4 1.5.3 1.7.4 1.1.8 1.3 1.5.5 2.5 1.2.2.2 1.2 1 1.4 1 .4.3-1.5.2-1.8.7.3.9.6 1.3 1.1l.7 1.2c.2.7.7.9 1.4.5 1.5.5 3.5.4 4.7 1.2.6.3.8 1.1 1.3 1.4.6.4 1.3.2 2 .4-.3.5-.1.8.5.8l1.2.3a4 4 0 011-.5c.3.4.6.5 1 .3 1.4.2 2 .7 2.9 1.5.8.7.1.7 1 .7.3 0 .9-.6 1.6-.5.5 0 1 .2 1.3.4.5.4 1 .4 1.4.1.8.4.9 1.1 1.9 1.2 1 .1.7-1.2 1.5.7 1-2 1.3 1.2 2.4 1.4 1 .3 1.2-.6 2 .4.3.3.3.7.6 1 .5.5 1.2.4 1.7 1.1-.3-.4 0 1.3 0 1.3 0 .7-.6 1.6.8 1.5l-.8 1v-.4c-.2 0-.3 1-.3 1.1.1 0 .2 0 .2-.2-.3.7 0 1.1-.4 1.8a84.6 84.6 0 00-4.3 3c-2.2 1.6-4.7 3.5-7.4 3.8 1.4-1.4 9.4-6.6 5.4-8-.8-.3-2.1-.6-3-.7-.9 0-2 .5-3 .2-1.3-.4-.8-1.7-1.6-2.1-1.7-1-1.3 1.3-1.8 1.8-.6-.6-.4-.8-1.3-.9-1 0-1.1.8-2.2.3-1.4-.7-.6-2.2-2.7-2.2 0-.3.4-1.2 0-1.4-.6.7-.1 1.4-.6 2-.3.4-.8.7-1.2.8-.9.2-1 .7-.9-.7-.6 1.2-2.7.8-4 .6-1.9-.2-4-.5-5.9-1.2-1.8-.6-2.7-1.6-4.1-2.5-.6-.3-.8-.2-1.6-.4s-1.6-.6-1.2-1.6zm4.2-21.3c.3-.2.5 2.5.1 3-.6-1-1.8-2.6-.1-3zm1-1c.9-1 .2 1.3 0 1.7l-1-.7 1-1zM212.6 6a58.7 58.7 0 0124.9 11c6.4 5.3 11 12.7 13.6 20.6 2.7 8.2 1.8 17.3-4.6 23.5-3.3 3.3-7.7 5.3-12 7.3l-6 2.6c-1.5.6-3.3 1.7-5 1.5 1-.9 2.1-1 3.2-1.5 1.2-.6 2.2-1.9 3.3-2.8 1-.9 3.4-3.7 5-3-.2-1.5 1.5-2.2 2.3-3.2.8-1 .8-2.3 2.3-2.6-1.6-1.3-1-3.7-.7-5.4.4-2.2.6-4.2.8-6.4.3-4 .6-9.2-1.6-12.8-.8-1.1-1.7-2.2-2.3-3.4-.8-1.4-.6-2.7-.6-4.3-1.5 1-1.8-1-2.4-1.9-.4-.7-1-1.1-1.2-2 0-.7.7-.8.3-1.4-.5.3-.7.9-1 1.4-.4-.2.1-.8-.1-1l-.8-.3c-.6-.7-.8-1.9-1-2.7-1 .5-.8.5-2-.4l-1.2-1c-.4-1 .3-.5.1-1.1-.6-1.9-4-1.5-4.3-4.3-1.6 1-2.3-.4-3.3-1.5s-2.7-1.5-2.6-3.2l-1.5.5c.2-1.6-2.1-1.5-3-2.3l1.4.1zm1.4 98.6c.8-.7.6.3 1 .2.5-.1.6-.5 1-.6 1.9-.4 4.5.1 6.4 0 2.2 0 6 .4 7 3 .6 1.5-.4 1-1.4.9h-3.5a.8.8 0 01-.4-.5c-1.1-.2-2.3.5-3.6.5a6 6 0 01-4.4-1.4c-.5.7-.8 1.1-1.7 1.2l-1-.4c-.2 0-.7.3-1 .2.6-1 .7-2.2 1.6-3zm113.4 9l.8-3.2c4.1 4.7 7.7 11 9.3 17 1.1 3.8 2.7 10.9-2.3 12.9-4 1.6-6.3-4.2-7.3-7.1a31.9 31.9 0 01-.5-19.7zM144.1 40.4s-2.7 1.6-1.8.3c.4-.5 1.7-.9 2.3-.9l-.5.6zm-2.6.7l-1 .8-.9-1.5c.6-.2 3.2-.4 1.9.7zm-2 49c-.5-.5-1-.3-1.1.4 0-.7.3-2.2.8-2.3.4-.1-1-1.8-.7-2.3 1 .6.4 1.2.7 2 .2.3.6.6.7.9.1.4.7 2-.3 1.2zm-2.7-3.9c-.6.1.4 1.1.4 1.5 0 .3-.4.6-.5 1-.4 1 .2 1.6-.7 2.3 0-2-1.4-7.5 1.3-8.6-1.4-1-.3-2.2.7-1 1 1.2.4 4.4-1.2 4.8zm-1.4-8.2c-.5-1.9-2.1-2.5-4-2.4.1-1 .9-2.3 1.4-.6.2-.5.4-1.2.8-1.5.9 2.6 5 4 2.4 6.8l-.6-2.3zm-4.8-2.3c-9.5.7-23 2.7-30.6-4.6-5-4.8-4.7-12.2-.7-17.5a32 32 0 0112.2-9c.2 0 .4 0 .6.2 0-.3.3-.6.5-.7.6-.3 1.3-.4 1.6-1l-.6 3.3-.8-.9c-.2 2-2.3.8-3.6 1 .9 1.2 1.5 1.7 1.5 3.2-.6-1.2-1.9-2-3-2.3.6 2 1 3 .4 5.2-.8-.4-.9-1.5-1.8-1.8-.3 1.3-.3 2.7-.7 3.9-2.4-1.1-2.2 1.9-1.2 3.4l1.3 2.5c1.1 1.9.2-1 1.5-.8-.3 2-.4 2.2 1 3.6 1.5 1.4 2.2 3.4 3.7 4.7.5-.6-.2-1.1-.3-1.7 1.4.3 2.1 1.7 3.5.4.5 1.2 1.2 2.4 2.6 2.7-1-1.8 1.8-.6 2.5-.3l1.7.4c1.1.4.3-.4 1 1 1-.3 1.5-1.2 2.7-.4 1 .6 1 1.6 1.2 2.6l.8-2c.2 0 1.3 1.3 1.2 1.3 2.7-.1 2.6 1.5 1.8 3.6zm-13.4-33.5c.5-.3 1.2.2 1.8 0 .8-.2 1.3-.9 2.2-1-.3.9-.8.8-1.2 1.4l-.1.9c-1 1-1.4.2-2.5-.6.1 1 .3 1.3-.6 1.5-.8.3-2.2-.6-2.6-1.3.3-.7 2.4-.4 3-.9zm6.6-1.5c.8.1-.2 2.7-1.5.2l1.5-.2zm4.5-.5c1.4-.3 6.1-1.6 6.7.6 0 0 .4-1.3.6-1.2.6.6.7 1.4.6 2.3-.7-1.6-.5-.2-1-.3-.1 0-.4.2-.7.1-.5-.1-.8-1.1-1-1.5-.6.7-1.2 1.6-2.1 1.6-.7 0-1.8-1.8-1 0-.5 0-1-.5-1.7-.4-.6.1-1 .7-1.6.8-1.3.3-1.5-1-2.4-1.7 1.2-.1 2.4 0 3.6-.3zm8.5 0c.1-.5 1.4-.6 1.7-.5.8.4.5.8.3 1.6l-1.7-.8c.9 1.3-.7 1.5-.3-.3zM375 120.1c-.1-3.2-.2-6.6-1-9.7-.6-2.3-2-6.3-4.7-6.6-4.1-.6-6.4 7.4-7.5 10.2-.2-3.3 0-6.7-1.3-9.8-1-2.5-3.4-4.8-5.6-2-1.9 2.4-2.2 6-2.7 9-.7 3.9-1 7.7-1.5 11.6-1.9-3.6-2.2-7.7-3.7-11.4a54.2 54.2 0 00-5.6-10c-1.7-2.6-3.8-5-6.5-6.5-2.4-1.4-6.4-2.8-8.7-.6-1.8 1.9-1.5 4.4-1.4 6.8 0 1 .2 1.8-.8 2.3-.4.3-1.1.1-1.6.3-.8.2-1.5.6-2.1 1-4.9 3.7-7 10-7.8 15.8-.8 7.3 2 13.5 4.5 20.2.3 1 1.6 3.3 1.4 4.5-.2 1.3-1.8 1.3-3 1.3-3.2.1-6.7-.2-10-.5-7.8-.7-15.7-4.5-22.7-7.8-1.3-.7-3.1-1-4.2-2-1-.9-1.2-2.4-2-3.4-2.2-2.6-3.5-4.8-6.6-6.3-3-1.6-6.3-3-9.3-4.8-3.8-2.1-7.3-4.8-11-7.2-6.6-4.5-13.3-9.4-20.4-13.1-3.4-1.8-7-2-10.5-3.5a18 18 0 00-11-.5c-1.7.4-2.8 1.4-4.4 2-1.8.9-3.3 0-5-1-2.4-1.4-4.8-3.7-1.3-5.2 1.2-.5 2.7-.7 3.7-1.6 1.1-.8 2-2.5 3-3.5 2-2.5 3.1-5.3 6-6.8 3.3-1.7 7.1-2.1 10.6-3.2 3.8-1.2 7.4-2.6 11.1-4a43 43 0 0018.3-10.7 24.7 24.7 0 005.7-17 46.5 46.5 0 00-16.9-33.6c-12-9.7-27.2-13-42.3-12.8a38 38 0 00-21.5 5.3c-5.1 3.7-6 10.3-5.2 16.1.3 2.4 1.4 5.6-.3 7.7-1 1.2-2.7 1.4-4 2.2-1.5.9-3 1.8-4.7 2.3-7.7 2-15.8 1.3-23.6 1.2a51 51 0 00-36.2 12.5c-8 7.5-10.3 21.5-.7 28.7 7.8 5.9 20 5.2 29.1 4.2 2.8-.3 4.8-.8 4.8 2.7 0 3.8-.6 7.8.3 11.5 1.6 5.8 7.2 6 12.2 4.7 2.6-.6 5.1-1.6 7.6-2.7 3.7-1.5 7-3.8 10.7-5.3 2.4-1 4.2 2.3 6.4 0 .4-.5.5-1.1 1.1-1.3 1-.4 2.5.8 3.4 1.2 1.2.6 2.5 1 3 2.4a8 8 0 01-.2 4.6c-1 2.8-3.6 2.2-6 2-4.1-.3-8.3-1-12.4-1.2-3.7-.3-7.2.8-10.5 2.7-6.7 3.8-12.2 10-18 15-3.1 2.6-6 5.4-9.3 7.7-1.4 1-3 1.9-4.2 3-1.2 1.3-1.4 2.4-1.8 4-.7 2.9-4.5 4.3-6.8 5.8a48.8 48.8 0 01-10.4 5 145.1 145.1 0 01-35.9 7.7c-3.4.3-7.1 1.4-10.6.5 1-1.6 2.8-2.6 4.2-3.8 1.7-1.6 3.2-3.5 4.6-5.5 2.6-3.9 4.5-8 4.9-12.7.4-4.2 0-9.3-2.6-12.8-1-1.3-2.6-1.6-3.4-2.7-.8-1.1-.5-3-1-4.3-1-3.3-4.3-7.3-7.1-9.2a14 14 0 00-11.2-1.8c-6.6 2-10.7 9.1-13.7 14.8-1.7-3.5 1.1-8.6-2.1-11.5-2.7-2.4-4.9 2.3-5.8 4.3-4.3 9.3-5.3 19.2-7 29.2-.8-.7-.4-2.5-.3-3.4V126c0-4 .8-8.1.5-12.1-.2-2.4-1-7.3-4.3-6.5-3 .6-4.7 4.7-5.6 7.2A29 29 0 001 125.4c.1 4.2-.7 8.3-.9 12.5-.3 8 0 16.1 2.3 24a50.5 50.5 0 0045.2 36c4 .3 7.8-.2 11.7-.6l11.7-1a83 83 0 0025-7.6c4.1-1.9 8-4.3 12-6.3 1.7-.9 2.8-1.9 4.2-3 1.4-1.2 1.8-1.3 3.3-1.3-.4-1.2 1-1.6 1.5-2.4v1.2c.4-1 .8-1 1.2 0l1.1-3.4c1.8.9 1.7 3 4 1.5l5.9-4.1c4.6-3 8.5-6.7 13.1-9.5 0 2.7.2 5.6-.1 8.3-.4 2.7-1.4 5.1-2.2 7.7-1.4 4.6-1.5 9.6-3.1 14.2-.7 2-2.4 3.5-2.9 5.4-.5 1.9.7 3.4-1.3 4.6-1.4 1-3 1.3-4.6 1.8-2.3.8-4.5 2-6.8 3-10.6 4.5-21 9.1-30.8 15.2a276.2 276.2 0 00-27.4 18.7c-7.4 6-15 13.7-16.8 23.5-1.7 9.4 3 19.6 12.4 22.7 4.9 1.6 10.4 1.4 15.5 1.5 5.5 0 11.3-1.2 16.7-2.2 5.6-1 11.2-2.6 17-3.5 5.4-.9 10.4-2.8 15.8-4 5.8-1.2 11.6-2 17.4-3 2.6-.6 5.1-1.3 7.8-1.8 2.8-.5 5.7-.7 8.5-1.4 5.5-1.4 10.7-3.5 16.2-4.8 2.5-.5 5-1.3 7.4-1.8 2.3-.5 4-1.8 6.3-.7 1.9.8 3.3 2.3 5 3.3 2.4 1.3 4.7 2.5 7.1 3.6 4.7 2.3 9.7 3.9 14.6 5.6 5.2 1.8 10.3 3.8 15.7 5 5.6 1.2 11.2 1.6 16.8 2.5 11.4 2 22.7 2.9 34.3 3 5.8 0 11.7-.7 17.5-.6 5.2 0 9.6 1.2 14.4-1.5 7.5-4.4 16.3-11 16.1-20.6-.2-8.7-5.4-17-10.3-23.9a87.7 87.7 0 00-22.7-20c-8.9-6-18.8-10.3-28.1-15.6-4.8-2.8-9.1-5.7-14.3-7.6l-7.3-3c-2-.8-4.8-1.3-6.5-2.6-1-.8-1.1-2.1-1.4-3.3-.6-2.8-1.6-5.4-2.5-8-1.8-5.1-3-10.3-3.8-15.6-.7-5.1-2.4-10.4-1.5-15.6 5.6 5.4 11.3 10.6 17 15.8l6.4 6c1.6 1.4 3.6 3.6 5.9 4 2.8.6 1.8-2.6 3.8-3 1.2-.4 4.8 2.7 5.8 3.3 6 3.8 12.7 6.3 19.3 8.9 7 2.7 14.2 5.2 21.7 5.8a52.5 52.5 0 0051-26.3 81 81 0 0013.7-44.3zM171.5 91.4z"
                  fill="#000"/>
            <path fill-rule="evenodd" clip-rule="evenodd"
                  d="M172.1 91.6l-.3-1.2c-.5.7-.9 1-.3 1.7l.6-.5zM202.8 191.4c.5-.5-.4-.7-.7-.7 0 .6-.2 2 .5 2.2-.2-.5-.1-1 .2-1.5zM189.8 81.7c-.9 1.6 1 2.1 2.1 1.3.8-.5 1.3-2 1.4-3 .5-3.2-1.7-6.2-2.8-9-.3-.7-.7-3.2-1.6-3.2-1-.1-1.1 2.2-1.2 2.8 0 1.7.5 3.5 1 5.2.6 1.8 2 4 1 5.9zM193.8 75.1c3.3 3 5.9-1.9 5.7-4.8 0-.7-.6-3.3-2-2.3-.6.5 0 2-.3 2.7-1.6 3.3-3.1-1.8-4.1-2.2-1.3-.5-1.4 1.2-1.4 2 0 1.8.8 3.5 2.1 4.6zM182 75.6c.8-1.2 1.7-2.8 1.8-4.3.2-2.2-1.1-2-2.2-.5-.8 1.1-1.3 3-3 2.5-2.1-.5-1.5-3.3-2.6-4.7-3 4 2.6 12.4 6 7zM186.4 87.6c1.2.3 4.4.2 3.3-1.6-1.4-2.4-6 1-3.3 1.6zM229 17.8c.2-.6-.1-.8-.7-1.3-.5.5.2 1 .7 1.3zM251.6 137.7c.8.1 1-.3.8-1.3-1.3 0-1.5.4-.8 1.3zM207.9 35.4c.8.4.5 1.3.5 2 .4-.5 1.4-1.4 1-2.1-.6-1.1-2.1-.1-1.5.1zM177.7 21.6l-.4-.7c-.5.4-1.4 1.6-.5 2.1l1-1.4zM188.3 29.4c1.2.8.6-1.8.6-2-.2.3-1.1 1.5-.6 2zM187.7 28l-.2-.6c-.5.4-1 1.2-.3 1.7l.5-1zM194.7 37.1l.3.3c.4-.8 0-1.3-.7-1.3 0 .4.2.7.4 1zM165.3 119.4l1.1-1c-1.2-.8-.5.9-2-.2-.4.5.2 1.5.9 1.2zM219.5 191.1c.5-.7.6-.7 0-1.3-.6 1-.6.7 0 1.3zM116.9 71.3l.8.8c.1-.3.8-1.4.3-1.7l-1.1.9zM126.4 74c-.4 0-1.4-.3-1.7 0 .6.6 2 .1 1.7 0z"
                  fill="#000"/>
        </svg>
    </symbol>

    <symbol id="third-picture">
        <svg width="375" height="288" fill="none" xmlns="http://www.w3.org/2000/svg">
            <path fill-rule="evenodd" clip-rule="evenodd"
                  d="M115.3 111c2-9 3.9-18.3 6.8-27l5.7-16.2c.3-.7.4-1.5.9-1.8.7-.5 2.1-.5 3-.7a282 282 0 0133.9-5.3c13-1.2 25.6-.7 38.4 1.8a302 302 0 0137.4 10c.7.2 2 .4 2.6.9 1.3 1 1.8 5.5 2.3 7.4.7 2.5 1 6 2.4 8 2 3.3 5 6 7.4 8.7a85.9 85.9 0 0029 22.3c17 7 35 11.5 52.6 15.9l1.2.3a213935.3 213935.3 0 00-21.4 28c-1.4 1.8-1.2 2-3 1.6-9.5-2.4-18.8-5-28-8.3a68.9 68.9 0 01-13.4-5.8c-5.8-3.5-11.2-7.8-16.5-12.3-4.7-4-9.3-8.1-13.8-12.4-1-.9-4.2-5-5.2-4.7-.9.2-2.5 2.7-3.1 3.4l-5.3 5.5c-2.8 3-5.7 6.6-9 8.8-3.4 2.3-7.4 3.9-11 5.7l-6.1 3.1c-.5.3-1.3.9-1.9.9-1.7 0-4.1-1.6-5.7-2.2-4-1.7-8-3.4-12-5.3-8.5-4-17.8-8.2-24.8-15.4a16.7 16.7 0 01-3.2-4.3c-.3-.6-.7-1.4-.8-2 0-1.2.5-1.4 1.3-2 4-3.6 8.2-6.6 12.4-9.7l3-2.2-49.2 4.7-6.9.7z"
                  fill="#FF7A00"/>
            <path fill-rule="evenodd" clip-rule="evenodd"
                  d="M188.6.3c5.2.3 10.5.5 15.7 1.4 5.1.9 10 3 14.6 5.7 8.3 4.9 16.9 10.7 22.3 20 2.5 4.3 4.6 8.8 8 12.2.8.8 1.7 1.8 2.8 2 .9.2 1.6-.2 2.5-.2 1.6-.1 2.2.9 2.2 2.8 1.2-.6 2.5-1.1 3.8-1 1.1.3 2 1 3 1.4 2 .6 3.8-.3 5.6-1 4.6-1.7 9.6-3 14.4-2.3 3.1.4 7 2 5.3 6.8-1.3 4-6.4 6-9.6 7-2.7.9-6.4.1-6.2 4.5.2 3.2.6 6.5 3.4 7.5 1.5.5 7 1.4 3.8 4.2-2.4 2-3.2 5.7-5 8.4a18.4 18.4 0 01-8.9 7.6c-4 1.4-8.3 1.1-12.4 1.7 3 4.7 7.1 8 11 11.6 4 3.8 7.8 8 12.5 10.7 4.1 2.4 8.6 4 13 6.1a151.4 151.4 0 0042.7 13.8c4.8 1 9.5 1 14.3 1 5 0 9.9 1.1 14.7 2.2l7.1 1.3c1.1.3 5.6.8 5.8 2.8.2 3.1-2.7 5-4.8 5.8-1 .4-2.4.3-3.2.9-.8.5-.5 1.4-.6 2.5a5 5 0 01-2 3.6c-.9.7-2 .7-1.3 2 .3.7 1 1 1.3 1.7.4.8.6 1.6.5 2.5-.1 1.5-1 2.7-2.2 3.3-2 .8-4.2.2-6.1 0-3.3-.5-6.6-.6-9.9-1.4-3.3-1-6.6-2.3-10-3.2-1.7-.4-3.5-.8-5.1-1.5-1.1-.4-2.7-1.5-4-1.1-1 .3-1.9 1.8-2.6 2.7l-3 3.8c-.6.9-1.3 1.7-2 2.4-.3.2-1.7 1.3-1.7 1.6-.1.8 1.5.8 1.8 1 2 2-1 3.1-2.2 3A97 97 0 01269 152c-6-4-11.6-8.4-17.2-13a51.6 51.6 0 01-7.7-7.2c-2.2-2.7-4-5.9-5.8-9-4.5 5-8.7 10.4-13.5 15-4.5 4.4-10 6.7-15.2 9.6.2 1.3 5.3 2 6.3 2.4 4.3 1.6 8.4 4 12.5 6 7 3.2 13.5 7.4 15.9 16.4 2.2 8.8-.4 17.6-3.6 25.6a145.3 145.3 0 01-21.1 36.2c-2.2 2.8-4 6-3.1 10 1.7-.7 2 1 1 2.3-1.1 1.2-2.9 1.5-4.2 1.7a56.7 56.7 0 01-34.2-7c-3.4-1.9-4.6 1.2-6.9 3.6-1.8 1.8-4.3 3-5.7 5.5-1.2 2-.4 5.1 2 4.4 1.8-.6 3.3-3 5.2-3.1 3.5-.2-3 5.7-3.9 6.4 1.7 1.7 3.6-.7 5.2-1 1.6-.5 2 .5 1.2 2-.6 1.3-2.7 2.2-1.3 3.7 1.1 1.2 3.7 1.9 5 2.4 4.5 1.7 8.9 3 13.4 3.7 1.5.2 4 0 5.1 1.3 1.6 1.7.8 4.4 0 6.3-3 7-9.3 10.6-15.8 11-4 .4-8 0-12 .3-4.4.3-8.8.7-13.3.6-7-.3-11.5-6.4-15-13-2.3-4.2-4.4-8.6-6.3-13-.8-1.7-2.4-3.5-2.6-5.5-.3-1.7.7-3.1 1.6-4.4 2.4-3.2 5.3-5.7 8.2-8.4 1.6-1.5 2.2-2.8 3-5 .5-2 1.7-2.7 2.7-4.2 1.2-1.7.8-2 0-3.3-1-1.5-.6-3.5-.3-5.1.6-2.3 1.8-2.8 3.6-3.6 1.6-.7 3-1.8 4.4-3 7.1-5.4 13.8-11.5 21-16.8 7.1-5.2 14.6-9.8 21.3-15.6-5.5-.8-10.3-4.3-15.5-6.4-2.7-1.1-5.3-2.2-7.9-3.6-1-.5-2.1-1-3-1.7-.9-.7-1.6-1.7-2.5-2.5-2.2-1.6-4.8-2.6-7.2-4-2.5-1.4-5-3-7.4-4.7a37.3 37.3 0 01-6.2-5.9c-1.4-1.8-2.9-4.1-5-5 .3 3.5 3.9 6.3 5.8 8.4 3.2 3.3 6.5 6.1 10 8.9-4 4-8.8 6.7-13.5 9.4-5.2 3-10.3 6.5-15.6 9.6-4.4 2.6-9 4.7-13.6 7.1a136 136 0 01-14.9 7c-4.6 1.7-9 3.7-13.2 6.2a75.5 75.5 0 01-13.3 6c-5 1.8-9.9 3.5-14.7 6a65.8 65.8 0 01-13.5 4.8c-1.5.4-3.5 1.1-4.6-.6-.8-1.3-.9-3.4-1.1-5-1-6-1-12-1.8-18-3 1-6 2.4-9.2 2.6-2 0-3.2.3-3.7 3 1.1.1 5.3.2 5.4 2.1.1 1.8-2.4 1.8-3.3 1.9-1.6 0-3-.3-4 1.6 1.3.6 4.2-.4 4.7 1.6.7 2.6-2.5 2.6-3.7 2.8-2 .3-1.9 2.2-1.7 4.3.2 2.7.3 5.4.6 8 .7 5.7 1.8 11.4 2.3 17.1.5 5 .7 9.7-2.3 13.7-1.2 1.6-2.8 3.4-4.7 3.6-2 .2-2-1.4-3.1-2.6-.8-.7-1.7-.8-2.6-1.2-1-.5-2-1.2-3-2-1.8-1.2-3.3-2.9-4.5-4.8a63.2 63.2 0 01-7-28.5c-.3-6 0-11.9.4-17.8l.9-9.5.3-3c0-.5-.2-1.7 0-2.2-.3.7-.8.2-1.4-.4-1-1-.7-3.2-.1-4.7 1.8-4.5 7.2-4.6 10.8-5 9.5-1 18.6-4 27.7-7.2-1.3-2.2.8-3.7 2.3-4.5l7.4-3.5c5.5-2.6 11-5 16.7-6.7 5.3-1.5 10.3-4 15.5-5.8a395.6 395.6 0 0046.8-20.4c2.5-1.3 5-2.9 7.4-4.5 2-1.2 4.4-2.1 6-4 1.7-1.7 2.6-4.1 4.4-5.7 1.6-1.4 3.8-1.4 5-3.2 1.8-2.4 4-3.4 6.4-4.8.7-.5 5.8-2.7 5.7-4-3.6 0-7.3 1.3-11 1.8-3.8.7-7.6 1.4-11.4 1.7-6.2.6-12.4.4-18.6-.4-1 0-4.7-1-5.3.2-.5.9.7 2 .7 3 0 1.3-1 2-2 1.6-2.1-1-1.8-5-1.6-7 .3-4 1.2-7.9 2-11.7-4.4 2.6-8.6 6-12.4 9.7-2.9 3-5.5 6.8-9 8.9-3.2 2-5.2.2-5-4 0-2 .4-4 1-5.8.2-.9 1.3-3.4.8-4.3-3 2.8-6 5.7-9.1 8.3-2.3 1.8-5.5 4.7-8.4 4-2.6-.7-2.3-4-1.5-6.3.7-2 2-3.7 3.2-5.2 1-1.2 2.5-2.3 3-4-3.4 1.8-7 3.2-10.6 4.5-2.5 1-4.3 4.7-7.3 4.2-3-.6-1.8-5-.6-6.9.8-1.3 2-2.5 3-3.5 1.2-1 2.9-1.8 3.4-3.4-3.5.8-7 2.2-10.6 2-2.2-.2-5.7-1.3-5.3-4.7.4-3.5 4.3-3.7 6.5-4.4 3-.8 5.8-2.5 8.7-3.7a223 223 0 0117.5-6.6l2-.7c6.6-2.2 13.3-4.2 20-6 3.4-1 6.7-2 10.1-2.8 3.3-.8 6.6-1.2 9.8-2.1-2.7-5 .6-8.9 4.1-11.2-2.2-.6-4.5-.9-6.8-1.5-1.9-.6-3.7-1.5-5.6-2-3.3-.8-6.7-1.2-9.5-3.7-5.3-4.6-5.8-11.8-1.3-17.4a23.8 23.8 0 0117.7-8.4c7.1-.3 15.3 1.4 22 4.4 3.3 1.4 6.8 3.3 9.6 5.8 2 1.7 5 5 7.6 5-3.1-4.4-7-9-7.5-15a20 20 0 015.3-15.3C167.6-1 179.7-.2 188.6.3zM147 243.5c-2 3.5-4.6 6.3-7 9.2-.9 1-2.6 2.3-2.7 3.9 0 1.3 1.3 2.7 1.8 3.7 3.1 5.3 5.6 11.2 9.4 16 4.2 5.3 9 6.4 15 6.4 6.8 0 13.5 1 20.2.6 5.6-.4 11.2-3.4 14-9.4-1.8-1.1-4.4-.6-6.4-.6-2.7 0-5.3 0-8-.5a30.4 30.4 0 01-10.5-4.4c-.8-.6-1.4-1.5-2.2-2-2.9-2.1-6.2 4.5-9.3 4.4-1.8 0-1.2-2.3-.4-3.5 1.4-2.2 3.9-3.6 5.8-5.2-1.8-1.9-3.7.1-5.4 1-2 1.3-4.2 2.8-6.5 3.3.2-3.5 4.2-5.4 6.4-6.8 1-.7 2.3-1.3 2.5-2.6.2-1.1-.1-2.6-.2-3.7-.1-1.3-.2-1.7-1.4-2.1-1.5-.5-3-.3-4.5-1-4-1.5-7.1-3.8-10.6-6.7zM15.5 188l-3 .9-6 1.4c-1 .2-2 .1-2.3 1.2-.2.6.2 1.7.3 2.3l.1 3.2c.1 10-1.7 20-.9 30.1.7 8.5 2.2 19.2 7.5 25.5a39 39 0 008 7.6c2.2 1.5 5.3-2.2 5.8-4.7.3-1.9-.2-3.8-.6-5.5l-1.3-6.8a103.2 103.2 0 01-2.2-19.4c0-.8.4-3-.1-3.7-.7-1-2.2-.3-3.1-.3-1 .1-2 0-3-.2-2.3-.7-2.7-3-.1-4 1.7-.6 5 .4 6.4-1 1.8-1.6-1.7-1.8-2.6-1.8-1 0-4.7.3-4.5-2.1.1-1.8 3.3-2 4.3-2 2.4-.2 5.3.8 6.3-2.5.5-1.3-2-2-2.6-2.7-1.5-1.6-2-4.3-2.1-6.6-.1-2.2 1.7-9.9-1-10.1-1 0-2.4 1-3.3 1.2zm138.6 44.4c-1.7 2.4-3.1 5-4.6 7.4 3.6 2.3 7.3 4.2 11 6.3 1.7.9 3 1.6 4.6.2 1.1-1 2-2.4 3.2-3.5l5-4.3c-5-2.1-10-4-15-6.2-2-.8-2.9-1.8-4.2.1zm-41.3-7.4c1 1.3-1 4.9-1.4 6 3.3-.2 6.6-.8 9.9-1.6 1-.3.7 1.3.3 1.8-.6.7-1.6.9-2.3 1.1-2.5.9-5.1 1.3-7.7 1.7 1.2 1.8 4 4.5 3.1 7-1.6-1.6-2.8-3.9-4.7-5.3-.5.9-1.6 4.2-2.8 4-1.9-.3 0-4.2.4-5.1-1.3 0-6 1.3-6.7-.6-.7-1.9 4-1.8 4.8-2.2l-.2-.3-.1-.2a6 6 0 01-1.4-3c1.4.5 2.4 3.2 4 3.2 1.5 0 2.1-2.6 2.7-3.9.3-.7 1.3-3.5 2-2.6zm161.3-25c3.3 3.2 1 9.7-1.3 12.6-2.8 3.2-8.8 6.2-12.3 2.9-1.9-1.8-1.2-4.6-.7-7 .5-2.7.8-5 2.7-6.8 3-2.8 8.4-5 11.6-1.7zm-6.5 1.9c-3 .8-6.3 4.5-7 8.3-1 5 3.4 5.3 6.3 4.6 3.6-1 7.5-4.1 7.7-9 .1-4.3-4.5-4.5-7-4zM40 180.4c-4.7 2-9 4.9-14 6.1-1.5.4-2.1.8-2.5 2.4-.5 2.4-1 4.7-.6 7.1.8 5 6.7 4.4 10 4.2 1.6 0 4.9.3 6.3-1 1-.9.6-2.6.5-3.9-.7-5 0-10 .3-14.9zm255.4-47.8c-1.7.4-4.7 2-2.2 4.1 1.6 1.4 4 1.6 6 2 3.8.6 7.8 1.2 11.1 3.7 6.1 4.7 5.4 13.5 3.6 20.8 1.3.9 5.1-5.1 5.8-6l9-11.9c1.2-1.6-9.2-7.4-10.2-8-5-2.7-9.5-4.5-15-5-2.7-.2-5.5-.3-8 .3zM274 118c-.4 1.4.4 2 1.2 3a72.1 72.1 0 019.6 19.9c1.1 3.4 2 6.7 2.7 10.3.7 3.4 3 4.4 5.7 5.3 6.3 2.3 13 3 19.3 5.3 1.6.6 2-3.8 2-5a17 17 0 00-1.3-9.2c-2.7-5.3-8-6.4-12.8-7.3-2.7-.5-6.3-1-8.4-3.2-1.1-1.1-1.3-2.4-.4-3.8 1.5-2.5 4.2-2.8 6.6-3 1.2-.1 8.5.8 8.8-.3-3.7-1.4-7.4-2.3-11-3.9l-8.4-3.6-2.9-1.2c-2.8-1.2-5.4-2.6-8.2-4-1-.6-2-.8-2.5.7zm61.7 22.9c-.9 1.4-1.8 2.7-2.5 4.3-.8 1.9-2.1 3-3.2 4.7 5.7 1.2 11.2 2.7 16.7 5 2.9 1 5.8 1.6 8.7 2.4 2.4.7 5 1.7 7.5 1.1-2.8-4.7-10.5-3.4-12.5-9-1.4-3.9 2-7 4.8-7.6 4.8-1.2 10-1.3 14.8-1.7 0-2.2-17.7-3.4-19.5-3.5-3-.4-6.3-1-9.4-1.2-3 0-3.9 3-5.4 5.5zM268 124.7l-5.1 6c-1.2 1.2-2.7 2.6-3.6 4.1-1.1 2 .9 3 2.2 3.8 3.3 2.4 6.8 4.6 10.2 6.8 3 2 6.2 4.5 9.5 5.7 1.8.6 3.5 1.6 5.2 2.4-.8-8.9-5.1-17-9-24.3l-2.8-5c-.5-1-1.4-3-2.3-3.1-1.4-.3-3.5 2.6-4.3 3.6zm87 22.6c2.2 1.4 4.3 2.1 6.6 1a37 37 0 001.7-.8c-1.5-2.6-6.2-1-8.2-.2zm-172.5-30.9c-3.7 2-7.6 4-10.8 7-1.2 1-3.8 3.3-3.2 5.4.5 1.8 3.4 3.3 4.8 3.9 7.4 2.8 15.7.7 22.4 6 1.9 1.4 2.5 3.3 3.8 5.2 1.2 1.7 2.8 1.4 4.4.7 2.2-.9 4.2-2.3 6.4-3.2 1-.5 3-.8 3-2.5.6-8.4-.9-19-7.1-24.2-7-5.7-16.6-2-23.7 1.7zm-4 19.5c-.1 1 6.8 3 7.6 3.2 4.2 1.4 8 4.6 12.4 5.1.8-2-5.2-5.1-6.2-5.5-4.3-1.9-9.2-2.2-13.7-2.8zm136.2-3.7a54.5 54.5 0 0114.7 10c1.6 1.5 5.3-5.6 6-6.7-7-.4-13.8-2-20.7-3.3zm-98.2-50c-4.9 3.9-9.1 8.9-14.5 11.8 1.7.3 3.5-1 5.1-1.4 1.6-.5 3.1-.8 4.7-1.4.9-.4 4.7-2.8 5.5-1.2 1 2.6-6.9 4.4-8 4.9-3.8 1.5-7.6 3-11.4 4.7-3.6 1.6-7.3 3.3-11 4.4-3.9 1.1-8 1.4-11.6 3.2-3.3 1.6-6 4.2-9.2 6-3.2 2-6.8 3-9.5 5.8 3 3.7 6.5 6.9 10.3 9.2.6-5.6 6.2-8.9 10.1-11 8.4-4.8 21-12 29.6-4 6.3 6 7.1 17.2 7.1 26 1.7-.7 3.3-1.7 4.8-2.7 1.1-.6 1.2-2.5 1.3-3.7.2-2 .7-4 1.2-6 1.2-4.3 2.7-8.4 4-12.6 2.3-6.8 5.1-13.5 6.5-20.7 1-4.6 2-12.6-2.7-15-4.1-2-9 1.2-12.3 3.8zM195 63.4c-.8.6-.5 2.5-.4 3.5.2 3.4 0 6.9.1 10.3.1 4.2.2 12 3.8 14.3 2.6 1.6 5.7-.8 7.7-2.5 3.4-2.7 6.5-6 9.9-8.7 4-3.2 11.8-7.7 15.7-1.6 2 3.3 1.8 8.2 1.3 12-.7 5-2.3 9.8-4 14.5-3.3 9.7-6.8 19.6-8.6 29.9 4.2-3 7.5-7.3 11.2-11 2.7-2.8 6.8-6 7.4-10.5.1-1 1-1.8 1.5-2.5.8-.9 1.3-1.8 1.8-3 1-2.4 1.7-5.1 2.2-7.9.9-5.8.4-11.5-.4-17.2-.4-2.6.2-5.4-.3-8-.4-1.7-1.4-1.6-2.8-2L226 68.7c-2-.6-4.3-1.7-6.4-1.7-1.7 0-3.2 1.3-4.7 2.2-2.4 1.4-6.4 4-9.2 2.5-3.3-1.7.6-5.5-1-7.3-1.2-1.2-4.6-.5-6.1-.8-.9-.1-2.8-1-3.6-.3zm51.9 49.8c-2.4.5-3.8 1.7-5.1 4.1-1.4 2.5-1.5 3.7.4 5.6 2 2 4.2 4.1 6.4 6 2.8 2.3 5.8 4.1 8.6 6.5 1.2 1 6.6-7.2 7.6-8.4l4-4.6c.5-.5 2.2-1.7 2.2-2.6 0-2.3-4.3-4.3-5.7-5-3-1.3-6.3-1.9-9.5-2-3 0-6-.1-9 .4zm10.6-10l-6.8 4c-.8.5-5.9 3-5.6 4.5 5.7-.4 11.3-1.6 17-.2 2.6.5 5 1.5 7.1 3.3 1.7 1.4 2.9 4 4.5 1.7-3.3-2.2-6.2-5.1-9.1-8l-3.9-3.5c-.8-.7-2-2.5-3.2-1.8zM122.8 70.3c-1.8.3-3.5.8-5.3 1.3-7 2-14.2 3.7-21.3 5.8-14 4-28.6 8-42 14.6 1 1.5 4 .4 5.5.1 2.7-.6 5.4-1.6 8.1-2.3 2.7-.7 5.3-1.6 8-2.2 1.2-.3 3.4-.7 3.5 1.5 0 3.1-5 5.4-7 6.6-2 1.2-3.9 2.5-5.8 4-1.5 1-4.3 2.5-4.7 4.7L76.4 97c1.8-1 3.7-1.8 5.4-3 1.2-.8 2.7-2.1 4-2.2 1.9-.2 2.2 1.8 1.4 3.4-1 2-3 3.2-4.5 4.6-1.9 1.8-3.6 3.9-5.3 6-1.4 1.6-3.2 3.3-4 5.6 2.6 1 5.5-2.3 7.4-3.9 3-2.5 5.7-5.2 8.5-8 1.4-1.3 3.1-3.5 5-4 2.4-.5 2.2 2.8 1.6 4.5-1.3 4-4.3 7.4-4.5 11.9-.2 2.7 1.8 1.7 3.1.6 2.3-2 3.8-4.8 5.8-7A61 61 0 01116.8 93c1-.6 1.5-2.6 1.8-3.7l1.6-5.2c1.3-3.8 2.4-8 4.2-11.4.5-1 1.8-2 .7-2.5-.6-.4-1.7 0-2.3 0zm51.5-6.4l-5.5.4c-3 .4-1.7 4.7-2.2 7.3-1.4 7.6-8.2 9-13.4 5.5-3-2-4.7-5-6.2-8.4-1-1.9-1.6-2.2-3.4-1.7-1.3.3-2.5.3-3.8.4-1.6.1-1.7.5-1.8 2.3 0 1.7-.2 2.8-1 4a18.8 18.8 0 01-7.2 5.5c-2.5 1.3-5.3 2.2-6.7 5.2-.7 1.5-1.4 3.3-1.6 5-.3 1.8.3 3-.6 4.7-2 3.6-2.8 7.5-3.8 11.6-.3 1.3-.4 1.8.8 2.2 1.7.5 4.2-.3 6-.4 1.3 0 2-2.7 2.5-3.8a85.4 85.4 0 0110.4-19c2.2-3 5.5-6.7 8.4-2.6 2.7 4.1 4.7 9 8 12.5 3 3.1 6 3.1 9 .2 3-3 5.4-7 7.2-10.9 2-4.3 3.6-8.9 5.5-13.2.7-1.4 3.5-5 2.6-6.6-.6-1-2.4-.3-3.2-.2zm15.3-1c-1.6.1-3.2 0-4.9-.1-2.9 0-5.3 0-6.8 3.3-1.3 3-2.3 6-3.5 9-2.6 6.5-5 13.1-9 18.6-3.5 4.9-8 7.4-12.5 2.7-2-2-3.5-4.7-5-7.4-1.1-2-2.5-5.8-4.4-7-2.1-1.3-4.6 1.8-6 3.5-2.1 2.8-4 6.2-5.8 9.4l-3.8 7.2c-.5 1-2.5 4.1-1.8 5.3.6 1.2 4 .4 5 .3 2.3-.3 4.6-.4 7-.6 7.2-.8 14.4-2.6 21.6-3.1 4.8-.4 9.5-1.5 14.3-2.5 4.5-1 9.2-1.6 13.7-2.9l8-2.2c1-.3 5.3-1 5.5-2.5-3-.6-4.5-2-5.6-5.4a51.6 51.6 0 01-1.6-13.7v-7.3c0-1.3.4-3.6-.6-4.5-.8-.8-2.8-.1-3.8 0zM249 91c0 5.7-.8 11.4-2.8 16.7 2.1.4 4.6-2.7 6.3-3.8.7-.3 5.1-2.3 3.6-3.7-2.7-2.7-4.5-6.4-7.1-9.2zm59.4 4.6c.6 1.5-.1 3.3-.6 4.6 3.2.9 6.4 1.8 9.5 2.5 2.4.6 1.6 2.3-.5 2.2-2.9-.2-5.6-1.6-8.5-1.8-2.7-.2-3 2.7-5.4 3.2.1-1.6 1.2-2.6 2-3.8l-3.8-2.3c-.7-.5-2.4-2.3-1.8-3.3.7-1 2.5.9 3.2 1.3.9.6 2.7 1.8 3.7 1.5 1.5-.5 1.2-3 2.2-4zm-45.6-37.1c-1.3 0-2.7-.4-3.9.2-1.2.7-2.6 2.2-3.6 3.2s-1.5 2.1-2.7 2.7c-1.3.6-2.5.5-3 2.3 1.1.4 3.3-.1 4.2.9 1.2 1.3-1 2.9-1.9 3.3-1.3.7-2.4.5-3.7.3-.6 0-.6-.2-1 .1-1.8 1.3-.6 5.8 0 7.4 2.8 8 12.4 5.3 17.9 4.5-1.8-2-4.6-4.4-4.8-7.7 0-1 .2-2.7 1.2-2.8.9 0 2 1.5 2.4 2 1.6 1.8 3.6 4.8 6 5 3 .4 5.3-5.4 6.5-8-1.5-.3-3.2-.3-4.1-2.1-1-2.1-1-5.4-1-7.8 0-2 .5-4.3-1.8-4.4-2.1 0-4.5.7-6.7.9zM59.1 63.6c-.4 1.2-2.3 1.6-3.2 2-3.2 1-6.3 2.5-9.5 4C40.1 72.5 34 75.7 28.1 80c-1 .8-.5-.7-.3-1.3.7-1.2 2-2.1 3-2.9 2.6-2 5.5-3.5 8.4-4.9 5.9-2.8 11.9-5.7 18-8 .6-.2 2.5-.8 2 .7zm73.3 5.7c-1.2.1-2.6-.2-3.7.2-1.5.6-1.2 1.8-1.7 3.3l-2.3 7.4c2.9-.1 5.6-2.8 8-4.3 1.4-.9 6.2-3.8 4.7-6.4-.9-1.7-3.7-.4-5-.2zm32.4-4.4c-1.8 0-3.7.6-5.5.7-2.4.2-4.7.7-7.1.8-1.6.1-3.2.5-4.7.8a16 16 0 008.4 9.4c3 1.3 7.1 1.5 9.2-1.9 1.2-2 3-9.7-.3-9.8zm91.9-17.5c-2 1.5-3.5 3.7-5.1 5.6a44 44 0 00-10 16.7c-.2.9 1.6 1.7 2.1 1.7 1 0 1.3-.5 1.7-1.6 1-2.5 1.4-5.4 3-7.6 2-2.7 4.3-5.3 6.6-7.6 1.6-1.5 5.4-3.7 5.8-6.3.5-3-3-1.8-4.1-.9zM207 65c-1 .4-1.1 1.6-1.4 2.9-1 5.1 9.1-.5 10.5-1.3-.4-1.7-5-1.4-6.1-1.4-.8-.1-2.2-.4-3-.2zm59.8 2.7c-1.5 0-.8-7.2.9-6.4 1.4.6 0 6.4-1 6.4zM56 59.4c-2.3 2.3-5.9 2.6-8.8 3.4-4.2 1.1-8.3 2.5-12.5 3.8-2.6.8-1.2-1.1.2-1.8 2.2-1.3 4.8-2 7.2-2.6 2.6-.8 5.3-1.3 8-2 1.7-.6 4-2 5.9-.8zM127.5 9a20 20 0 017.3 3c1.9 1.4 1.8 3.4-.6 2.2-10.9-5.5-24.5-2.2-35.2 2.7-1.1.6-1-.6-.7-1.5.5-1.3 1.5-2 2.5-2.6 3-1.7 6.6-2.7 9.8-3.4a39.9 39.9 0 0116.9-.4zm1.6-8c1.4.5 3 1.6 3.8 3 1 1.6.2 2.5-1.2 1.5-1.5-1-3-2.1-4.7-2.7-1-.3-.9-1-.2-1.6.6-.6 1.6-.4 2.3-.2z"
                  fill="#000"/>
        </svg>
    </symbol>

    <symbol id="facebook">
        <svg xmlns="http://www.w3.org/2000/svg" width="70" height="70" fill="none">
            <g clip-path="url(#clip0)">
                <path fill="#3C5A9A" d="M35 70a35 35 0 100-70 35 35 0 000 70z"/>
                <path fill="#fff"
                      d="M46.4 10.7h-7.8c-4.6 0-9.7 2-9.7 8.6v7.1h-5.3v8.5H29v24.4h10V34.7h6.7l.6-8.3H39v-4.8c0-2.6 2.7-2.5 2.9-2.5h4.5v-8.4z"/>
            </g>
            <defs>
                <clipPath id="clip0">
                    <path fill="#fff" d="M0 0h70v70H0z"/>
                </clipPath>
            </defs>
        </svg>
    </symbol>

    <symbol id="google-plus">
        <svg xmlns="http://www.w3.org/2000/svg" width="70" height="70" fill="none">
            <path fill="#D34836" fill-rule="evenodd"
                  d="M0 34.9A34.93 34.93 0 0134.96 0a34.93 34.93 0 0134.96 34.9 34.93 34.93 0 01-34.96 34.89A34.93 34.93 0 010 34.89z"
                  clip-rule="evenodd"/>
            <path fill="#fff" fill-rule="evenodd"
                  d="M68.84 26.86h-8.27v9.17h-3.9v-9.17h-9.1v-3.81h9.1v-9.1h3.9v9.1h6.94a34.6 34.6 0 011.33 3.81z"
                  clip-rule="evenodd"/>
            <path fill="#fff" fill-rule="evenodd"
                  d="M9.6 57.48a13.2 13.2 0 014.74-4.58c5.07-3.1 11.9-3.51 15.58-3.74-1.14-1.46-2.46-3.01-2.46-5.56 0-1.37.41-2.19.82-3.15-.9.08-1.78.17-2.6.17-8.64 0-13.53-6.43-13.53-12.77 0-3.75 1.72-7.9 5.21-10.91 4.66-3.82 10.2-4.47 14.59-4.47h16.78l-5.22 2.92h-5.03c1.87 1.55 5.77 4.8 5.77 11 0 6.02-3.43 8.85-6.83 11.54-1.08 1.05-2.28 2.2-2.28 3.98 0 1.78 1.2 2.77 2.1 3.5l2.94 2.29c3.6 2.98 6.85 5.75 6.85 11.37 0 3.7-1.73 7.41-5.1 10.26-1.82.3-3.68.45-5.58.46 3.43-1.5 5.2-4.24 5.2-7.54 0-4.15-2.66-6.34-8.87-10.75-.65-.06-1.06-.06-1.88-.06-.73 0-5.12.14-8.55 1.28-1.79.65-7 2.6-7 8.4 0 .62.07 1.23.2 1.82-8.59-6.36-4.87-5.46-5.85-5.46zm27.47-27.35c0-5.88-3.48-14.98-10.25-14.98-2.1 0-4.4 1.06-5.71 2.69-1.38 1.7-1.79 3.9-1.79 6 0 5.47 3.17 14.5 10.2 14.5 2.02 0 4.21-1 5.53-2.28 1.87-1.87 2.02-4.47 2.02-5.93z"
                  clip-rule="evenodd"/>
            <path fill="#000" fill-opacity=".08" fill-rule="evenodd"
                  d="M70 35.1A34.93 34.93 0 0135.04 70a34.85 34.85 0 01-19.36-5.84L55.74 6.98A34.82 34.82 0 0170 35.1z"
                  clip-rule="evenodd"/>
        </svg>
    </symbol>

    <symbol id="trello">
        <svg xmlns="http://www.w3.org/2000/svg" width="70" height="70" fill="none">
            <g clip-path="url(#clip0)">
                <path fill="#E44332" fill-rule="evenodd"
                      d="M35 70A35 35 0 102.9 21l9.1 5.5c1 .5 2 .5 3 0l23.8-14c.7-.4 1.5-.5 2.2 0l2.4 1.3c.7.5.7 1.6.1 2L27.6 25 15 32.5c-1 .6-2 .6-3 0L1 26.1c-.4 1.5-.7 3.1-.9 4.8L12 37.7c1 .5 2 .5 3 0L38.8 24c.7-.4 1.5-.4 2.2 0l2.4 1.3c.7.5.7 1.6.1 1.9l-15.9 9.1L15 43.5a3 3 0 01-3 0L0 36.6a35 35 0 001 6.9l11 6.3c1 .5 2 .5 3 0l23.8-13.6c.7-.4 1.5-.4 2.2 0l2.4 1.3c.7.4.7 1.5.1 1.9l-15.9 9L15 55.8a3 3 0 01-3 0L3.9 51A35 35 0 0035 70z"
                      clip-rule="evenodd"/>
            </g>
            <defs>
                <clipPath id="clip0">
                    <path fill="#fff" d="M0 0h70v70H0z"/>
                </clipPath>
            </defs>
        </svg>
    </symbol>

    <symbol id="trello-blue">
        <svg xmlns="http://www.w3.org/2000/svg" fill="none">
            <path fill="#5D7FC7" fill-rule="evenodd"
                  d="M70 35a35 35 0 11-70 0 35 35 0 0170 0zM19 23.5a5 5 0 015-5h4a5 5 0 015 5v21.3a5 5 0 01-5 5h-4a5 5 0 01-5-5V23.5zm24.2-5a5 5 0 00-5 5v9.7a5 5 0 005 5H47a5 5 0 005-5v-9.7a5 5 0 00-5-5h-4z"
                  clip-rule="evenodd"/>
        </svg>
    </symbol>

    <symbol id="work-lio">
        <svg xmlns="http://www.w3.org/2000/svg" fill="none">
            <g clip-path="url(#clip0)">
                <path fill="#4D4D4D"
                      d="M30.7 40.3l3.1-11.5c.1-.3.3-.4.7-.4H37c.4 0 .5.1.6.4L41 40.4l2.9-9.4h-1.6c-.3 0-.5-.2-.5-.5V29c0-.4.2-.5.5-.5h4.1c.6 0 .8.4.7.8l-4.5 14.6c0 .3-.3.4-.6.4H39c-.3 0-.5 0-.6-.4l-3-11.4-3.2 11.4c0 .3-.3.4-.6.4h-2.9c-.3 0-.5 0-.6-.4L24.6 31H23c-.3 0-.4-.2-.4-.5V29c0-.4.1-.5.4-.5h4.2c.4 0 .6.1.6.5l3 11.4z"/>
                <path fill="#24BAC9"
                      d="M51.2 60.3c-4-2.2-6.6-6-7.4-10.1-5.1 3-11.6 3.3-17.2.3a8.7 8.7 0 00-8.3 15.3 35 35 0 0039-3.8c-2.2-.1-4.3-.7-6.1-1.7z"/>
                <path fill="#F03955"
                      d="M62 12.8A14.4 14.4 0 0150.2 26c3 5.2 3.3 11.7.2 17.3a8.7 8.7 0 0015.3 8.3 35 35 0 00-3.7-39z"/>
                <path fill="#59B89C"
                      d="M9.7 51.2c2-3.9 5.8-6.5 10.1-7.3-3-5.2-3.3-11.7-.3-17.3a8.7 8.7 0 00-15.3-8.3 35 35 0 003.8 39c0-2.1.6-4.2 1.7-6.1z"/>
                <path fill="#F09502"
                      d="M51.7 4.2a35 35 0 00-39 3.8 14.5 14.5 0 0113.4 11.8c5.2-3 11.7-3.3 17.3-.3a8.7 8.7 0 008.3-15.3z"/>
            </g>
            <defs>
                <clipPath id="clip0">
                    <path fill="#fff" d="M0 0h70v70H0z"/>
                </clipPath>
            </defs>
        </svg>
    </symbol>

    <symbol id="slack">
        <svg xmlns="http://www.w3.org/2000/svg" fill="none">
            <g clip-path="url(#clip0)">
                <path fill="#E0A451" d="M54.7 44.8l15-5A35.3 35.3 0 0059.4 10l-14.7 5 9.9 29.7z"/>
                <path fill="#76C5C9" d="M44.8 15.1L40 .3l.8.1a35 35 0 00-31 10.4l5 14.7 30.1-10.4z"/>
                <path fill="#657E41"
                      d="M44.8 15.1l14.7-5v-.2c-.2 0-.3-.2-.5-.3l-.2-.2a44 44 0 00-.4-.4l-.2-.2a26 26 0 00-.4-.3l-.2-.2-.4-.3-.2-.2-.4-.4-.2-.1-.5-.3-.2-.2-.4-.3-.2-.2-.7-.4-.3-.3-.4-.2-.4-.2-.2-.2-.4-.2-.3-.2-.4-.2-.3-.2-.5-.2-.2-.1-.5-.3h-.2c-.2-.2-.3-.3-.5-.3l-.2-.1-.5-.3h-.2l-.6-.3a28 28 0 00-6.7-2h-.1l-.8-.2h-.8L45 15z"/>
                <path fill="#CB2561" d="M24.8 55l5 14.6-.7-.1a35 35 0 0030.5-9.7l-5-15L24.8 55z"/>
                <path fill="#B32231"
                      d="M60.6 58.8l.2-.2.5-.6.1-.1.5-.5.2-.3.3-.3c0-.2.1-.2.2-.3l.3-.4.2-.3.2-.3.3-.4.2-.3.3-.3.1-.3.3-.4.2-.3.2-.4.2-.2.2-.5.1-.2a38.6 38.6 0 002-4l.3-.7v-.1l.2-.6v-.2l.3-.6v-.1l.3-.7 1.2-5.4-15 5 5 15 .4-.4.1-.2.4-.4z"/>
                <path fill="#45A98E" d="M14.7 25.5l-14.4 5a35.3 35.3 0 0010.1 29.4L24.8 55l-10-29.5z"/>
                <path fill="#298B75"
                      d="M9.7 10.8l-.5.5-.1.1-.4.5-.1.1-.5.5v.1l-2 2.6-.5.7v.1l-.4.5-.1.2-.3.5-.1.3-.3.4-.1.3-.3.4-.1.3-.2.4-.2.3-.2.5-.1.2-.2.5-.2.3a23.5 23.5 0 00-.4 1.2l-.2.3-.1.4-.2.4-.1.4-.1.3-.2.5v.3l-.2.5v.3l-.2.5v.3l-.2.5v.3l-.3.8v.2l-.1.6v.4l-.1.4v.4l-.1.4 14.4-5-5-14.7z"/>
                <path fill="#432344"
                      d="M24.8 55l-14.4 4.9.5.5.1.1.6.5.6.5 2.6 2.1h.1l.6.5h.2l.5.4.2.1.5.3.2.2.5.2.2.2.5.2.2.2.5.2.3.1.4.2.3.2.4.2.3.1.4.2 1 .4h.1l.5.2.3.1.4.2.3.1.5.1.3.1.5.2h.3l.5.2h.2l.6.2h.2l.6.2h.2l.6.2h.2l.6.1.8.2-5-14.6z"/>
            </g>
            <defs>
                <clipPath id="clip0">
                    <path fill="#fff" d="M0 0h70v70H0z"/>
                </clipPath>
            </defs>
        </svg>
    </symbol>

    <symbol id="dropbox">
        <svg xmlns="http://www.w3.org/2000/svg" fill="none">
            <path fill="#3D9AE8" fill-rule="evenodd" d="M0 35a35 35 0 1170 0 35 35 0 01-70 0z" clip-rule="evenodd"/>
            <path fill="#fff" fill-rule="evenodd"
                  d="M47.1 45v1.9L35 54.8l-12-8V45l3.6 2.1.4.2.4-.3 7.7-5.8 7.7 5.8.3.3.4-.2 3.6-2.2z"
                  clip-rule="evenodd"/>
            <path fill="#fff" fill-rule="evenodd"
                  d="M43.4 17.6L35 24.5l-8.1-7-12.4 8.1 8.5 6.5-8.5 6.5 8.5 5L27 46l8-6.3 8.2 6.3 4-2.4 8.2-5-7.9-6.8 8-6.6-12.1-7.6zm3.4 14L35 39.4 23.3 32 35 24.9l11.7 6.7z"
                  clip-rule="evenodd"/>
            <path fill="#000" fill-opacity=".1" fill-rule="evenodd"
                  d="M70 35a35 35 0 01-54.4 29.1L55.7 6.8A35 35 0 0170 35z" clip-rule="evenodd"/>
        </svg>
    </symbol>


</svg>
